<svg width="20" height="20" viewBox="0 0 20 20" fill="none" xmlns="http://www.w3.org/2000/svg">
<path d="M14.1673 11.6666V16.6666M11.6673 14.1666H16.6673M5.00065 8.33325H6.66732C7.58779 8.33325 8.33398 7.58706 8.33398 6.66659V4.99992C8.33398 4.07944 7.58779 3.33325 6.66732 3.33325H5.00065C4.08018 3.33325 3.33398 4.07944 3.33398 4.99992V6.66659C3.33398 7.58706 4.08018 8.33325 5.00065 8.33325ZM13.334 8.33325H15.0007C15.9211 8.33325 16.6673 7.58706 16.6673 6.66659V4.99992C16.6673 4.07944 15.9211 3.33325 15.0007 3.33325H13.334C12.4135 3.33325 11.6673 4.07944 11.6673 4.99992V6.66659C11.6673 7.58706 12.4135 8.33325 13.334 8.33325ZM5.00065 16.6666H6.66732C7.58779 16.6666 8.33398 15.9204 8.33398 14.9999V13.3333C8.33398 12.4128 7.58779 11.6666 6.66732 11.6666H5.00065C4.08018 11.6666 3.33398 12.4128 3.33398 13.3333V14.9999C3.33398 15.9204 4.08018 16.6666 5.00065 16.6666Z" stroke="#746253" stroke-width="1.5" stroke-linecap="round" stroke-linejoin="round"/>
</svg>
