<svg width="20" height="20" viewBox="0 0 20 20" fill="none" xmlns="http://www.w3.org/2000/svg">
<path d="M16.6673 10.8333V4.99992C16.6673 4.07944 15.9211 3.33325 15.0007 3.33325H5.00065C4.08018 3.33325 3.33398 4.07944 3.33398 4.99992V10.8333M16.6673 10.8333V14.9999C16.6673 15.9204 15.9211 16.6666 15.0007 16.6666H5.00065C4.08018 16.6666 3.33398 15.9204 3.33398 14.9999V10.8333M16.6673 10.8333H14.5125C14.2915 10.8333 14.0795 10.921 13.9232 11.0773L11.9114 13.0892C11.7551 13.2455 11.5432 13.3333 11.3221 13.3333H8.67916C8.45815 13.3333 8.24619 13.2455 8.08991 13.0892L6.07806 11.0773C5.92178 10.921 5.70982 10.8333 5.48881 10.8333H3.33398" stroke="#2A2A2A" stroke-width="1.5" stroke-linecap="round" stroke-linejoin="round"/>
</svg>
