<svg width="56" height="56" viewBox="0 0 56 56" fill="none" xmlns="http://www.w3.org/2000/svg">
<g filter="url(#filter0_d_36_3019)">
<rect x="6" width="44" height="44" rx="22" fill="#DBCAB8" shape-rendering="crispEdges"/>
<g clip-path="url(#clip0_36_3019)">
<path d="M30.2258 22.6957C30.4732 23.1904 28.4017 23.9634 28.0307 24.0561C25.2481 24.8291 22.8519 24.3344 20.3785 23.0513C20.3321 23.0204 19.9611 23.2986 19.8993 23.3295C19.7447 23.4068 19.6055 23.4996 19.451 23.5769C19.1882 23.716 18.9099 23.8551 18.6316 23.9634C17.936 24.2416 17.1785 24.3498 16.421 24.2262C15.8954 24.1489 15.2461 23.9788 14.9524 23.4996C14.9215 23.4532 14.906 23.4068 14.8751 23.3605C14.6587 22.8503 15.0606 22.3711 15.4625 22.0928C16.1737 21.5981 17.0857 21.459 17.9205 21.459C18.3225 21.459 18.7398 21.5054 19.1418 21.5672C19.3582 21.6136 19.5901 21.66 19.8065 21.7064C19.8683 21.7218 20.4867 21.9382 20.5022 21.9228C21.7389 20.3305 22.3263 18.8774 23.192 17.0532C22.0481 17.1923 20.765 17.1769 19.7138 16.6204C19.1263 16.3112 18.6471 15.7856 18.6471 15.0745C18.6471 13.8223 19.8065 13.1576 20.7804 12.7866C21.5843 12.4928 22.45 12.3846 23.3002 12.3846C23.4857 12.3846 23.5012 12.601 23.2848 12.601C20.734 12.601 19.3737 13.9151 19.3273 14.8735C19.2809 15.8783 20.5331 16.7595 23.4703 16.6049C23.5012 16.6049 23.6094 16.3421 23.6403 16.3112C23.7022 16.203 23.7485 16.0948 23.8104 15.9865C23.934 15.7701 24.0423 15.5382 24.1659 15.3218C24.4133 14.858 24.6452 14.3943 24.8925 13.946C25.4026 13.0184 25.9283 12.1218 26.593 11.287C27.2113 10.5295 27.9379 9.83389 28.8191 9.38558C29.5147 9.04549 30.9679 8.50442 31.4162 9.50926C31.7099 10.1585 31.308 10.9933 30.9988 11.5653C30.6432 12.23 30.1949 12.8638 29.6693 13.4049C28.3398 14.9044 26.7012 15.9556 24.7997 16.8368C23.4857 19.3411 23.022 20.2378 21.3524 22.2165C24.1041 24.2107 27.3814 24.6126 30.2258 22.6957ZM16.7456 24.0252C17.7659 24.0252 18.8944 23.4841 19.5128 22.6494C15.8799 20.2532 14.3031 23.8861 16.7456 24.0252ZM25.1553 16.0793C25.1244 16.1566 25.0935 16.2339 25.0625 16.3112C25.1553 16.2803 25.2481 16.2494 25.3408 16.2184C26.0055 15.9556 26.794 15.4919 27.0104 15.3218C27.6287 14.889 28.1543 14.3479 28.649 13.7759C29.5302 12.7556 30.4732 11.7353 30.7669 10.375C30.8442 10.0349 30.9215 9.58655 30.7205 9.27737C30.5196 8.96819 30.1176 9.06095 29.8239 9.18462C29.5456 9.30829 29.2674 9.47834 29.051 9.6793C27.5514 11.0551 25.851 14.6571 25.1553 16.0793Z" fill="#746253" stroke="#746253" stroke-width="0.695652"/>
<path d="M40.8929 19.0938C39.6253 19.0938 35.1577 22.5411 32.6224 26.2203L29.8552 27.1169C30.2417 26.3749 30.5818 25.6638 30.9219 24.9836C31.7876 23.1595 32.6224 21.4435 34.2301 19.5884L34.2456 19.573V19.5575C34.2456 19.4493 34.1992 19.4029 34.091 19.4029H34.0755C32.0659 20.114 30.69 20.2377 28.6958 20.2377C25.4649 20.2377 23.1151 21.9846 23.1151 24.4116C23.1151 25.9266 24.2746 27.0706 25.8205 27.0706C27.1345 27.0706 28.3093 25.7875 28.3248 25.772L28.3403 25.7411L28.1393 25.5401L28.1084 25.5556C28.0929 25.571 26.8871 26.6377 25.805 26.6377C24.5065 26.6377 23.5171 25.6793 23.5171 24.3962C23.5171 21.1962 27.9229 20.9488 29.2678 20.9488C31.0147 20.9488 31.6639 20.7169 33.4726 19.9285C31.3084 22.572 29.6543 25.2309 28.2784 27.5189C23.9036 28.9102 19.6523 30.487 19.6523 33.3933C19.6523 34.3826 20.518 35.1865 21.6002 35.1865C24.3209 35.1865 27.9229 31.8165 29.6388 27.658L32.3596 26.7768C31.3857 28.4309 30.9374 29.9923 30.9374 31.8165C30.9374 33.4551 31.8494 34.5218 33.2562 34.5218C33.7818 34.5218 34.4775 34.0889 34.5084 34.0735L34.5393 34.0425L34.3383 33.8416L34.3229 33.857C34.3229 33.857 33.6581 34.1198 33.2407 34.1198C32.3441 34.1198 31.8494 33.4706 31.8494 32.3421C31.8494 30.1469 33.4881 27.2252 34.1837 26.0657C35.6369 25.4319 36.5799 24.9372 38.1876 23.9324C40.3055 22.6184 41.5731 20.8715 41.5731 19.944C41.5731 19.4029 41.3258 19.0938 40.8929 19.0938ZM41.2021 19.944C41.2021 20.7942 39.6562 22.5256 37.9557 23.5768C36.4562 24.5198 35.7915 24.9063 34.5548 25.4319C37.0591 21.8145 39.8263 19.3875 40.8465 19.3875C41.063 19.3875 41.2021 19.6194 41.2021 19.944ZM21.6465 34.7073C20.8118 34.7073 20.1161 34.0889 20.1161 33.3314C20.1161 30.858 23.749 29.5904 27.9383 28.1063L27.9693 28.0909C26.4697 30.6261 24.0118 34.7073 21.6465 34.7073Z" fill="#746253" stroke="#746253" stroke-width="0.695652"/>
</g>
</g>
<defs>
<filter id="filter0_d_36_3019" x="0.434783" y="0" width="55.1304" height="55.1304" filterUnits="userSpaceOnUse" color-interpolation-filters="sRGB">
<feFlood flood-opacity="0" result="BackgroundImageFix"/>
<feColorMatrix in="SourceAlpha" type="matrix" values="0 0 0 0 0 0 0 0 0 0 0 0 0 0 0 0 0 0 127 0" result="hardAlpha"/>
<feOffset dy="5.56522"/>
<feGaussianBlur stdDeviation="2.78261"/>
<feComposite in2="hardAlpha" operator="out"/>
<feColorMatrix type="matrix" values="0 0 0 0 0 0 0 0 0 0 0 0 0 0 0 0 0 0 0.25 0"/>
<feBlend mode="normal" in2="BackgroundImageFix" result="effect1_dropShadow_36_3019"/>
<feBlend mode="normal" in="SourceGraphic" in2="effect1_dropShadow_36_3019" result="shape"/>
</filter>
<clipPath id="clip0_36_3019">
<rect width="27.8261" height="27.8261" fill="white" transform="translate(14.0879 8.08691)"/>
</clipPath>
</defs>
</svg>
