<svg width="16" height="16" viewBox="0 0 16 16" fill="none" xmlns="http://www.w3.org/2000/svg">
<g clip-path="url(#clip0_28_939)">
<path d="M13.6458 14.114V2.06488C13.6458 1.04254 12.8144 0.211182 11.7921 0.211182H4.37724C3.3549 0.211182 2.52354 1.04254 2.52354 2.06488V14.114H1.59668V15.0408H14.5726V14.114H13.6458V14.114ZM9.0115 2.99174H10.8652V4.84544H9.0115V2.99174ZM9.0115 5.7723H10.8652V7.626H9.0115V5.7723ZM9.0115 8.55286H10.8652V10.4066H9.0115V8.55286ZM5.3041 2.99174H7.1578V4.84544H5.3041V2.99174ZM5.3041 5.7723H7.1578V7.626H5.3041V5.7723ZM5.3041 8.55286H7.1578V10.4066H5.3041V8.55286ZM6.23094 14.114V11.3334H9.93836V14.114H6.23094Z" fill="#746253"/>
</g>
<defs>
<clipPath id="clip0_28_939">
<rect width="14.8297" height="14.8297" fill="white" transform="translate(0.669922 0.211182)"/>
</clipPath>
</defs>
</svg>
