<svg width="15" height="15" viewBox="0 0 15 15" fill="none" xmlns="http://www.w3.org/2000/svg">
<path d="M7.16672 0C5.74928 0 4.36367 0.420321 3.18511 1.20781C2.00655 1.9953 1.08797 3.11459 0.545537 4.42413C0.00310525 5.73368 -0.13882 7.17467 0.13771 8.56487C0.414239 9.95508 1.0968 11.2321 2.09909 12.2344C3.10137 13.2366 4.37836 13.9192 5.76856 14.1957C7.15877 14.4723 8.59976 14.3303 9.90931 13.7879C11.2189 13.2455 12.3381 12.3269 13.1256 11.1483C13.9131 9.96977 14.3334 8.58416 14.3334 7.16672C14.3312 5.26667 13.5754 3.44509 12.2319 2.10156C10.8883 0.758024 9.06676 0.00224153 7.16672 0ZM9.93047 9.00987C9.99269 9.06997 10.0423 9.14186 10.0765 9.22135C10.1106 9.30084 10.1286 9.38633 10.1293 9.47284C10.1301 9.55934 10.1136 9.64514 10.0809 9.72521C10.0481 9.80527 9.99972 9.87802 9.93854 9.93919C9.87737 10.0004 9.80463 10.0487 9.72456 10.0815C9.64449 10.1143 9.5587 10.1307 9.47219 10.13C9.38568 10.1292 9.30019 10.1113 9.2207 10.0771C9.14121 10.043 9.06932 9.99334 9.00922 9.93112L7.16672 8.08797L5.32422 9.93112C5.20134 10.0498 5.03677 10.1155 4.86594 10.114C4.69512 10.1125 4.53171 10.044 4.41091 9.92318C4.29011 9.80238 4.22159 9.63897 4.22011 9.46815C4.21862 9.29732 4.28429 9.13275 4.40297 9.00987L6.24547 7.16672L4.40297 5.32357C4.34075 5.26347 4.29111 5.19158 4.25697 5.11209C4.22282 5.0326 4.20485 4.94711 4.2041 4.8606C4.20335 4.77409 4.21983 4.6883 4.25259 4.60823C4.28535 4.52816 4.33372 4.45542 4.3949 4.39424C4.45607 4.33307 4.52881 4.28469 4.60888 4.25193C4.68895 4.21918 4.77474 4.20269 4.86125 4.20344C4.94776 4.20419 5.03325 4.22217 5.11274 4.25631C5.19223 4.29046 5.26412 4.34009 5.32422 4.40232L7.16672 6.24547L9.00922 4.40232C9.06932 4.34009 9.14121 4.29046 9.2207 4.25631C9.30019 4.22217 9.38568 4.20419 9.47219 4.20344C9.5587 4.20269 9.64449 4.21918 9.72456 4.25193C9.80463 4.28469 9.87737 4.33307 9.93854 4.39424C9.99972 4.45542 10.0481 4.52816 10.0809 4.60823C10.1136 4.6883 10.1301 4.77409 10.1293 4.8606C10.1286 4.94711 10.1106 5.0326 10.0765 5.11209C10.0423 5.19158 9.99269 5.26347 9.93047 5.32357L8.08797 7.16672L9.93047 9.00987Z" fill="#746253"/>
</svg>
