<svg width="39" height="21" viewBox="0 0 39 21" fill="none" xmlns="http://www.w3.org/2000/svg">
<path fill-rule="evenodd" clip-rule="evenodd" d="M35.7488 6.81634C37.5439 6.81634 38.9992 5.49337 38.9992 3.86141C38.9992 2.22946 37.5439 0.906494 35.7488 0.906494C33.9536 0.906494 32.4984 2.22946 32.4984 3.86141C32.4984 4.82562 32.5015 5.91675 31.8275 6.6062L27.7176 10.81C27.121 11.4202 26.2034 11.5441 25.3501 11.5441C24.3866 11.5441 23.339 11.4717 22.6261 10.8235L20.2003 8.61793C19.5661 8.04131 19.4992 7.08234 19.4992 6.2252C19.4992 4.59324 18.0439 3.27028 16.2488 3.27028C14.4536 3.27028 12.9984 4.59324 12.9984 6.2252C12.9984 7.08378 12.9319 8.04465 12.2966 8.62223L5.97561 14.3693C5.26242 15.0178 4.21432 15.0901 3.25041 15.0901C1.45526 15.0901 0 16.4131 0 18.0451C0 19.677 1.45526 21 3.25041 21C5.04557 21 6.50083 19.677 6.50083 18.0451C6.50083 17.1872 6.56753 16.2274 7.20222 15.6503L13.5262 9.90054C14.2387 9.25269 15.2857 9.18012 16.2488 9.18012C17.2134 9.18012 18.2625 9.25228 18.9762 9.90123L21.3981 12.1032C22.0331 12.6805 22.0997 13.6409 22.0997 14.4991C22.0997 16.131 23.5549 17.454 25.3501 17.454C27.1452 17.454 28.6005 16.131 28.6005 14.4991C28.6005 13.5358 28.5978 12.4459 29.2712 11.7571L33.3844 7.54983C33.9802 6.9404 34.8965 6.81634 35.7488 6.81634Z" fill="#746253"/>
</svg>
