<svg width="15" height="15" viewBox="0 0 15 15" fill="none" xmlns="http://www.w3.org/2000/svg">
<g clip-path="url(#clip0_28_916)">
<path d="M13.5838 0.679688H9.49086C9.07563 0.679688 8.74938 1.00594 8.74938 1.42117C8.74938 1.8364 9.07563 2.16265 9.49086 2.16265H11.7746L9.04597 4.89131C6.94016 3.31937 3.94457 3.46766 2.04637 5.36586C-0.0297803 7.44201 -0.0297803 10.8528 2.04637 12.929C4.12252 15.0051 7.53335 15.0051 9.6095 12.929C11.5077 11.0308 11.6856 8.00554 10.084 5.92939L12.8127 3.20073V5.51416C12.8127 5.92939 13.139 6.25564 13.5542 6.25564C13.9694 6.25564 14.2957 5.92939 14.2957 5.51416V1.42117C14.3253 1.00594 13.9991 0.679688 13.5838 0.679688ZM8.60108 11.8909C7.08846 13.4035 4.62673 13.4035 3.11411 11.8909C1.60148 10.3783 1.60148 7.91656 3.11411 6.40394C4.62673 4.89131 7.08846 4.89131 8.60108 6.40394C10.1137 7.91656 10.1137 10.3783 8.60108 11.8909Z" fill="#746253"/>
</g>
<defs>
<clipPath id="clip0_28_916">
<rect width="14.8297" height="14.8297" fill="white" transform="translate(0 0.175293)"/>
</clipPath>
</defs>
</svg>
