<svg width="17" height="17" viewBox="0 0 17 17" fill="none" xmlns="http://www.w3.org/2000/svg">
<path d="M9.03824 0.88501C9.92096 0.887364 10.369 0.892072 10.7558 0.903057L10.908 0.908549C11.0838 0.914826 11.2572 0.922673 11.4667 0.932088C12.3016 0.97132 12.8712 1.10314 13.371 1.29695C13.8889 1.49625 14.3251 1.76616 14.7614 2.20164C15.1606 2.59375 15.4693 3.06825 15.6661 3.59202C15.8599 4.09184 15.9917 4.66149 16.031 5.49713C16.0404 5.70585 16.0482 5.87925 16.0545 6.0558L16.0592 6.20802C16.071 6.59406 16.0757 7.04209 16.0773 7.92481L16.078 8.51015V9.53803C16.0799 10.1104 16.0739 10.6827 16.06 11.2548L16.0553 11.407C16.049 11.5836 16.0412 11.757 16.0317 11.9657C15.9925 12.8014 15.8591 13.3702 15.6661 13.8708C15.4693 14.3946 15.1606 14.8691 14.7614 15.2612C14.3693 15.6603 13.8948 15.9691 13.371 16.1659C12.8712 16.3597 12.3016 16.4915 11.4667 16.5308L10.908 16.5543L10.7558 16.559C10.369 16.57 9.92096 16.5755 9.03824 16.5771L8.45289 16.5778H7.4258C6.85321 16.5799 6.28063 16.5738 5.70822 16.5598L5.556 16.5551C5.36973 16.548 5.18351 16.5399 4.99733 16.5308C4.16247 16.4915 3.59283 16.3597 3.09222 16.1659C2.56874 15.969 2.09451 15.6603 1.70262 15.2612C1.3032 14.8692 0.994179 14.3947 0.797149 13.8708C0.603342 13.371 0.471522 12.8014 0.43229 11.9657L0.408751 11.407L0.404828 11.2548C0.390364 10.6827 0.383825 10.1104 0.385212 9.53803V7.92481C0.38304 7.35249 0.388795 6.78017 0.402474 6.20802L0.407967 6.0558C0.414244 5.87925 0.42209 5.70585 0.431506 5.49713C0.470738 4.66149 0.602558 4.09262 0.796364 3.59202C0.993854 3.06804 1.30342 2.59352 1.70341 2.20164C2.09507 1.80269 2.56902 1.49395 3.09222 1.29695C3.59283 1.10314 4.16169 0.97132 4.99733 0.932088C5.20605 0.922673 5.38024 0.914826 5.556 0.908549L5.70822 0.903841C6.28037 0.8899 6.85269 0.883884 7.42501 0.885794L9.03824 0.88501ZM8.23162 4.80822C7.19113 4.80822 6.19324 5.22155 5.4575 5.9573C4.72176 6.69304 4.30842 7.69092 4.30842 8.73142C4.30842 9.77192 4.72176 10.7698 5.4575 11.5055C6.19324 12.2413 7.19113 12.6546 8.23162 12.6546C9.27212 12.6546 10.27 12.2413 11.0057 11.5055C11.7415 10.7698 12.1548 9.77192 12.1548 8.73142C12.1548 7.69092 11.7415 6.69304 11.0057 5.9573C10.27 5.22155 9.27212 4.80822 8.23162 4.80822ZM8.23162 6.3775C8.54075 6.37745 8.84685 6.43828 9.13246 6.55653C9.41807 6.67478 9.6776 6.84812 9.89621 7.06667C10.1148 7.28522 10.2883 7.54468 10.4066 7.83025C10.525 8.11582 10.5859 8.42191 10.5859 8.73103C10.586 9.04015 10.5252 9.34626 10.4069 9.63187C10.2887 9.91748 10.1153 10.177 9.89677 10.3956C9.67822 10.6142 9.41876 10.7877 9.13319 10.906C8.84762 11.0244 8.54153 11.0853 8.23241 11.0853C7.60811 11.0853 7.00938 10.8373 6.56793 10.3959C6.12649 9.95445 5.87849 9.35572 5.87849 8.73142C5.87849 8.10712 6.12649 7.50839 6.56793 7.06695C7.00938 6.6255 7.60811 6.3775 8.23241 6.3775M12.3518 3.63125C12.0917 3.63125 11.8422 3.73459 11.6582 3.91852C11.4743 4.10246 11.371 4.35193 11.371 4.61206C11.371 4.87218 11.4743 5.12165 11.6582 5.30559C11.8422 5.48952 12.0917 5.59286 12.3518 5.59286C12.6119 5.59286 12.8614 5.48952 13.0453 5.30559C13.2292 5.12165 13.3326 4.87218 13.3326 4.61206C13.3326 4.35193 13.2292 4.10246 13.0453 3.91852C12.8614 3.73459 12.6119 3.63125 12.3518 3.63125Z" fill="#746253"/>
</svg>
