<svg width="14" height="14" viewBox="0 0 14 14" fill="none" xmlns="http://www.w3.org/2000/svg">
<rect width="14" height="14" rx="7" fill="#DBCAB8" fill-opacity="0.35"/>
<path d="M7.09168 7.19585C6.79884 7.19585 6.51799 7.07952 6.31091 6.87245C6.10384 6.66538 5.98751 6.38453 5.98751 6.09168C5.98751 5.79884 6.10384 5.51799 6.31091 5.31091C6.51799 5.10384 6.79884 4.98751 7.09168 4.98751C7.38453 4.98751 7.66538 5.10384 7.87245 5.31091C8.07952 5.51799 8.19585 5.79884 8.19585 6.09168C8.19585 6.23668 8.16729 6.38026 8.1118 6.51423C8.05631 6.64819 7.97498 6.76992 7.87245 6.87245C7.76992 6.97498 7.64819 7.05631 7.51423 7.1118C7.38027 7.16729 7.23668 7.19585 7.09168 7.19585ZM7.09168 3C6.27172 3 5.48533 3.32573 4.90553 3.90553C4.32573 4.48533 4 5.27172 4 6.09168C4 8.41044 7.09168 11.8334 7.09168 11.8334C7.09168 11.8334 10.1834 8.41044 10.1834 6.09168C10.1834 5.27172 9.85763 4.48533 9.27783 3.90553C8.69803 3.32573 7.91165 3 7.09168 3Z" fill="#746253"/>
</svg>
