<svg width="16" height="16" viewBox="0 0 16 16" fill="none" xmlns="http://www.w3.org/2000/svg">
<g clip-path="url(#clip0_28_957)">
<path d="M8.08456 0.24707C5.01853 0.24707 2.52344 2.75946 2.52344 5.84836C2.52344 10.2373 7.56181 14.769 7.77623 14.9593C7.86459 15.0378 7.97457 15.0767 8.08456 15.0767C8.19455 15.0767 8.30453 15.0378 8.39289 14.9599C8.60731 14.769 13.6457 10.2373 13.6457 5.84836C13.6457 2.75946 11.1506 0.24707 8.08456 0.24707ZM8.08456 8.89771C6.381 8.89771 4.99505 7.51175 4.99505 5.80819C4.99505 4.10464 6.381 2.71868 8.08456 2.71868C9.78812 2.71868 11.1741 4.10464 11.1741 5.80819C11.1741 7.51175 9.78812 8.89771 8.08456 8.89771Z" fill="#746253"/>
</g>
<defs>
<clipPath id="clip0_28_957">
<rect width="14.8297" height="14.8297" fill="white" transform="translate(0.669922 0.24707)"/>
</clipPath>
</defs>
</svg>
