<svg width="54" height="62" viewBox="0 0 54 62" fill="none" xmlns="http://www.w3.org/2000/svg">
<g filter="url(#filter0_d_141_1864)">
<rect x="4.71875" y="0.71875" width="44.5625" height="44.5625" rx="22.2812" stroke="#746253" stroke-width="1.4375"/>
<g filter="url(#filter1_d_141_1864)">
<rect x="11.1875" y="7.1875" width="31.625" height="31.625" rx="15.8125" fill="#746253" shape-rendering="crispEdges"/>
<path d="M27 29L25.985 28.1368C22.38 25.0828 20 23.0621 20 20.5967C20 18.576 21.694 17 23.85 17C25.068 17 26.237 17.5297 27 18.3602C27.763 17.5297 28.932 17 30.15 17C32.306 17 34 18.576 34 20.5967C34 23.0621 31.62 25.0828 28.015 28.1368L27 29Z" fill="white"/>
</g>
<path d="M23.4155 45.4369L27.6779 51.8308L31.4142 45.4259C28.4303 45.7115 26.3008 45.7092 23.4155 45.4369Z" fill="#746253" stroke="#746253" stroke-width="1.4375"/>
</g>
<defs>
<filter id="filter0_d_141_1864" x="0" y="0" width="54" height="61.1875" filterUnits="userSpaceOnUse" color-interpolation-filters="sRGB">
<feFlood flood-opacity="0" result="BackgroundImageFix"/>
<feColorMatrix in="SourceAlpha" type="matrix" values="0 0 0 0 0 0 0 0 0 0 0 0 0 0 0 0 0 0 127 0" result="hardAlpha"/>
<feOffset dy="4"/>
<feGaussianBlur stdDeviation="2"/>
<feComposite in2="hardAlpha" operator="out"/>
<feColorMatrix type="matrix" values="0 0 0 0 0 0 0 0 0 0 0 0 0 0 0 0 0 0 0.25 0"/>
<feBlend mode="normal" in2="BackgroundImageFix" result="effect1_dropShadow_141_1864"/>
<feBlend mode="normal" in="SourceGraphic" in2="effect1_dropShadow_141_1864" result="shape"/>
</filter>
<filter id="filter1_d_141_1864" x="7.1875" y="7.1875" width="39.625" height="39.625" filterUnits="userSpaceOnUse" color-interpolation-filters="sRGB">
<feFlood flood-opacity="0" result="BackgroundImageFix"/>
<feColorMatrix in="SourceAlpha" type="matrix" values="0 0 0 0 0 0 0 0 0 0 0 0 0 0 0 0 0 0 127 0" result="hardAlpha"/>
<feOffset dy="4"/>
<feGaussianBlur stdDeviation="2"/>
<feComposite in2="hardAlpha" operator="out"/>
<feColorMatrix type="matrix" values="0 0 0 0 0 0 0 0 0 0 0 0 0 0 0 0 0 0 0.25 0"/>
<feBlend mode="normal" in2="BackgroundImageFix" result="effect1_dropShadow_141_1864"/>
<feBlend mode="normal" in="SourceGraphic" in2="effect1_dropShadow_141_1864" result="shape"/>
</filter>
</defs>
</svg>
