<svg width="54" height="62" viewBox="0 0 54 62" fill="none" xmlns="http://www.w3.org/2000/svg">
<g filter="url(#filter0_d_141_1828)">
<rect x="4.71875" y="0.71875" width="44.5625" height="44.5625" rx="22.2812" stroke="#746253" stroke-width="1.4375"/>
<g filter="url(#filter1_d_141_1828)">
<rect x="11.1875" y="7.1875" width="31.625" height="31.625" rx="15.8125" fill="#746253" shape-rendering="crispEdges"/>
<path d="M23.8692 27.2C23.104 27.2 22.4849 27.83 22.4849 28.6C22.4849 29.37 23.104 30 23.8692 30C24.6344 30 25.2605 29.37 25.2605 28.6C25.2605 27.83 24.6344 27.2 23.8692 27.2ZM19.6953 16V17.4H21.0866L23.591 22.713L22.6518 24.428C22.5405 24.624 22.4779 24.855 22.4779 25.1C22.4779 25.87 23.104 26.5 23.8692 26.5H32.2171V25.1H24.1614C24.064 25.1 23.9875 25.023 23.9875 24.925L24.0084 24.841L24.6344 23.7H29.8171C30.3388 23.7 30.7979 23.413 31.0344 22.979L33.5249 18.436C33.5823 18.3292 33.6112 18.2092 33.6087 18.0878C33.6062 17.9664 33.5725 17.8477 33.5108 17.7433C33.4491 17.6389 33.3616 17.5524 33.2568 17.4922C33.1519 17.4321 33.0334 17.4003 32.9127 17.4H22.624L21.9701 16H19.6953ZM30.8257 27.2C30.0605 27.2 29.4414 27.83 29.4414 28.6C29.4414 29.37 30.0605 30 30.8257 30C31.591 30 32.2171 29.37 32.2171 28.6C32.2171 27.83 31.591 27.2 30.8257 27.2Z" fill="white"/>
</g>
<path d="M23.4155 45.4369L27.6779 51.8308L31.4142 45.4259C28.4303 45.7115 26.3008 45.7092 23.4155 45.4369Z" fill="#746253" stroke="#746253" stroke-width="1.4375"/>
</g>
<defs>
<filter id="filter0_d_141_1828" x="0" y="0" width="54" height="61.1875" filterUnits="userSpaceOnUse" color-interpolation-filters="sRGB">
<feFlood flood-opacity="0" result="BackgroundImageFix"/>
<feColorMatrix in="SourceAlpha" type="matrix" values="0 0 0 0 0 0 0 0 0 0 0 0 0 0 0 0 0 0 127 0" result="hardAlpha"/>
<feOffset dy="4"/>
<feGaussianBlur stdDeviation="2"/>
<feComposite in2="hardAlpha" operator="out"/>
<feColorMatrix type="matrix" values="0 0 0 0 0 0 0 0 0 0 0 0 0 0 0 0 0 0 0.25 0"/>
<feBlend mode="normal" in2="BackgroundImageFix" result="effect1_dropShadow_141_1828"/>
<feBlend mode="normal" in="SourceGraphic" in2="effect1_dropShadow_141_1828" result="shape"/>
</filter>
<filter id="filter1_d_141_1828" x="7.1875" y="7.1875" width="39.625" height="39.625" filterUnits="userSpaceOnUse" color-interpolation-filters="sRGB">
<feFlood flood-opacity="0" result="BackgroundImageFix"/>
<feColorMatrix in="SourceAlpha" type="matrix" values="0 0 0 0 0 0 0 0 0 0 0 0 0 0 0 0 0 0 127 0" result="hardAlpha"/>
<feOffset dy="4"/>
<feGaussianBlur stdDeviation="2"/>
<feComposite in2="hardAlpha" operator="out"/>
<feColorMatrix type="matrix" values="0 0 0 0 0 0 0 0 0 0 0 0 0 0 0 0 0 0 0.25 0"/>
<feBlend mode="normal" in2="BackgroundImageFix" result="effect1_dropShadow_141_1828"/>
<feBlend mode="normal" in="SourceGraphic" in2="effect1_dropShadow_141_1828" result="shape"/>
</filter>
</defs>
</svg>
