<svg width="18" height="18" viewBox="0 0 18 18" fill="none" xmlns="http://www.w3.org/2000/svg">
<path d="M4.52469 2.93609L9.00005 7.41145L13.4522 2.95928C13.5506 2.8546 13.669 2.77087 13.8005 2.71309C13.932 2.65531 14.0738 2.62469 14.2174 2.62305C14.5249 2.62305 14.8198 2.7452 15.0373 2.96263C15.2547 3.18007 15.3769 3.47497 15.3769 3.78247C15.3796 3.92461 15.3532 4.06581 15.2994 4.1974C15.2455 4.32899 15.1654 4.44819 15.0638 4.54768L10.5537 8.99986L15.0638 13.51C15.2549 13.6969 15.367 13.9501 15.3769 14.2172C15.3769 14.5247 15.2547 14.8196 15.0373 15.0371C14.8198 15.2545 14.5249 15.3767 14.2174 15.3767C14.0697 15.3828 13.9223 15.3581 13.7845 15.3042C13.6468 15.2504 13.5218 15.1684 13.4174 15.0636L9.00005 10.5883L4.53628 15.052C4.43831 15.1532 4.32128 15.234 4.19193 15.2897C4.06259 15.3454 3.92348 15.375 3.78266 15.3767C3.47516 15.3767 3.18026 15.2545 2.96282 15.0371C2.74539 14.8196 2.62324 14.5247 2.62324 14.2172C2.62053 14.0751 2.64691 13.9339 2.70074 13.8023C2.75457 13.6707 2.83472 13.5515 2.93628 13.452L7.44642 8.99986L2.93628 4.48971C2.74519 4.30277 2.63314 4.04961 2.62324 3.78247C2.62324 3.47497 2.74539 3.18007 2.96282 2.96263C3.18026 2.7452 3.47516 2.62305 3.78266 2.62305C4.06092 2.62653 4.32758 2.73899 4.52469 2.93609Z" fill="#746253"/>
</svg>
