<svg width="37" height="37" viewBox="0 0 37 37" fill="none" xmlns="http://www.w3.org/2000/svg">
<rect x="0.6875" y="-0.6875" width="34.375" height="34.375" rx="17.1875" transform="matrix(-1 0 0 1 36.375 2)" fill="white"/>
<rect x="0.6875" y="-0.6875" width="34.375" height="34.375" rx="17.1875" transform="matrix(-1 0 0 1 36.375 2)" stroke="#DBCAB8" stroke-width="1.375"/>
<path fill-rule="evenodd" clip-rule="evenodd" d="M15.523 13.3222C15.0934 13.7518 15.0934 14.4482 15.523 14.8778L19.1451 18.5L15.523 22.1222C15.0934 22.5518 15.0934 23.2482 15.523 23.6778C15.9525 24.1074 16.649 24.1074 17.0786 23.6778L21.4786 19.2778C21.9082 18.8482 21.9082 18.1518 21.4786 17.7222L17.0786 13.3222C16.649 12.8926 15.9525 12.8926 15.523 13.3222Z" fill="#746253"/>
</svg>
