<svg width="15" height="15" viewBox="0 0 15 15" fill="none" xmlns="http://www.w3.org/2000/svg">
<g clip-path="url(#clip0_28_883)">
<path d="M13.8097 9.87313C12.9017 9.87313 12.0102 9.73113 11.1655 9.45195C10.7515 9.31076 10.2426 9.44029 9.98998 9.69977L8.32253 10.9585C6.38876 9.92627 5.1976 8.7355 4.17945 6.81625L5.40116 5.19225C5.71857 4.87527 5.83242 4.41223 5.69602 3.97776C5.41564 3.12853 5.27322 2.23748 5.27322 1.32916C5.27326 0.672989 4.73943 0.13916 4.08329 0.13916H1.35989C0.703751 0.13916 0.169922 0.672989 0.169922 1.32912C0.169922 8.85016 6.28862 14.9688 13.8097 14.9688C14.4658 14.9688 14.9996 14.435 14.9996 13.7789V11.0631C14.9996 10.407 14.4658 9.87313 13.8097 9.87313Z" fill="#746253"/>
</g>
<defs>
<clipPath id="clip0_28_883">
<rect width="14.8297" height="14.8297" fill="white" transform="translate(0.169922 0.13916)"/>
</clipPath>
</defs>
</svg>
