<svg width="15" height="16" viewBox="0 0 15 16" fill="none" xmlns="http://www.w3.org/2000/svg">
<g clip-path="url(#clip0_28_949)">
<path d="M12.0645 3.95448H3.25943V2.71868H5.26762C5.52343 2.71868 5.73104 2.51107 5.73104 2.25525V0.710497C5.73104 0.454686 5.52343 0.24707 5.26762 0.24707H2.64153C2.30045 0.24707 2.02363 0.523273 2.02363 0.864973V4.21648C0.934267 4.69473 0.169922 5.78039 0.169922 7.044V11.3693C0.169922 11.711 0.446742 11.9872 0.787824 11.9872H5.73104C5.75823 11.9872 5.78171 11.9749 5.80828 11.9718C5.83423 11.9761 5.85833 11.9872 5.88552 11.9872H7.58475V14.4588C7.58475 14.8005 7.86157 15.0767 8.20265 15.0767C8.54374 15.0767 8.82056 14.8005 8.82056 14.4588V11.9872H14.5362C14.792 11.9872 14.9996 11.7796 14.9996 11.5238V6.88952C14.9996 5.27123 13.6828 3.95448 12.0645 3.95448ZM5.11314 10.7514H1.40573V7.044C1.40573 6.02199 2.23742 5.19029 3.25943 5.19029C4.28145 5.19029 5.11314 6.02199 5.11314 7.044V10.7514Z" fill="#746253"/>
</g>
<defs>
<clipPath id="clip0_28_949">
<rect width="14.8297" height="14.8297" fill="white" transform="translate(0.169922 0.24707)"/>
</clipPath>
</defs>
</svg>
