<svg width="14" height="14" viewBox="0 0 14 14" fill="none" xmlns="http://www.w3.org/2000/svg">
<rect width="14" height="14" rx="7" fill="#DBCAB8" fill-opacity="0.35"/>
<path d="M7.4112 3C7.86118 3.0012 8.08957 3.0036 8.28676 3.0092L8.36436 3.012C8.45395 3.0152 8.54235 3.0192 8.64914 3.024C9.07472 3.044 9.36511 3.11119 9.61989 3.20999C9.88388 3.31158 10.1063 3.44918 10.3287 3.67117C10.5321 3.87105 10.6895 4.11293 10.7898 4.37993C10.8886 4.63472 10.9558 4.9251 10.9758 5.35108C10.9806 5.45748 10.9846 5.54587 10.9878 5.63587L10.9902 5.71346C10.9962 5.91025 10.9986 6.13864 10.9994 6.58862L10.9998 6.887V7.41098C11.0008 7.70272 10.9977 7.99447 10.9906 8.28613L10.9882 8.36373C10.985 8.45372 10.981 8.54212 10.9762 8.64852C10.9562 9.07449 10.8882 9.36448 10.7898 9.61967C10.6895 9.88666 10.5321 10.1285 10.3287 10.3284C10.1288 10.5319 9.88689 10.6893 9.61989 10.7896C9.36511 10.8884 9.07472 10.9556 8.64914 10.9756L8.36436 10.9876L8.28676 10.99C8.08957 10.9956 7.86118 10.9984 7.4112 10.9992L7.11282 10.9996H6.58925C6.29737 11.0006 6.00549 10.9976 5.71369 10.9904L5.63609 10.988C5.54114 10.9844 5.44621 10.9803 5.35131 10.9756C4.92573 10.9556 4.63534 10.8884 4.38016 10.7896C4.1133 10.6892 3.87156 10.5318 3.67179 10.3284C3.46818 10.1286 3.31066 9.8867 3.21022 9.61967C3.11142 9.36488 3.04423 9.07449 3.02423 8.64852L3.01223 8.36373L3.01023 8.28613C3.00285 7.99447 2.99952 7.70273 3.00023 7.41098V6.58862C2.99912 6.29687 3.00205 6.00513 3.00903 5.71346L3.01183 5.63587C3.01503 5.54587 3.01903 5.45748 3.02383 5.35108C3.04383 4.9251 3.11102 4.63512 3.20982 4.37993C3.31049 4.11282 3.46829 3.87093 3.67219 3.67117C3.87184 3.4678 4.11345 3.31041 4.38016 3.20999C4.63534 3.11119 4.92533 3.044 5.35131 3.024C5.4577 3.0192 5.5465 3.0152 5.63609 3.012L5.71369 3.0096C6.00535 3.00249 6.2971 2.99943 6.58885 3.0004L7.4112 3ZM7.00003 4.9999C6.46962 4.9999 5.96094 5.2106 5.58588 5.58566C5.21083 5.96071 5.00013 6.46939 5.00013 6.9998C5.00013 7.5302 5.21083 8.03889 5.58588 8.41394C5.96094 8.78899 6.46962 8.9997 7.00003 8.9997C7.53043 8.9997 8.03911 8.78899 8.41417 8.41394C8.78922 8.03889 8.99992 7.5302 8.99992 6.9998C8.99992 6.46939 8.78922 5.96071 8.41417 5.58566C8.03911 5.2106 7.53043 4.9999 7.00003 4.9999ZM7.00003 5.79986C7.1576 5.79983 7.31364 5.83084 7.45924 5.89112C7.60483 5.9514 7.73713 6.03977 7.84857 6.15117C7.96001 6.26258 8.04842 6.39484 8.10875 6.54042C8.16908 6.68599 8.20014 6.84202 8.20016 6.9996C8.20019 7.15718 8.16918 7.31322 8.1089 7.45881C8.04862 7.6044 7.96026 7.7367 7.84885 7.84814C7.73745 7.95959 7.60518 8.04799 7.45961 8.10832C7.31403 8.16865 7.158 8.19971 7.00043 8.19974C6.68218 8.19974 6.37697 8.07332 6.15194 7.84828C5.92691 7.62325 5.80049 7.31804 5.80049 6.9998C5.80049 6.68155 5.92691 6.37635 6.15194 6.15131C6.37697 5.92628 6.68218 5.79986 7.00043 5.79986M9.10032 4.39993C8.96772 4.39993 8.84055 4.45261 8.74678 4.54637C8.65302 4.64013 8.60034 4.7673 8.60034 4.8999C8.60034 5.03251 8.65302 5.15968 8.74678 5.25344C8.84055 5.3472 8.96772 5.39988 9.10032 5.39988C9.23292 5.39988 9.36009 5.3472 9.45386 5.25344C9.54762 5.15968 9.60029 5.03251 9.60029 4.8999C9.60029 4.7673 9.54762 4.64013 9.45386 4.54637C9.36009 4.45261 9.23292 4.39993 9.10032 4.39993Z" fill="#746253"/>
</svg>
