<svg width="16" height="16" viewBox="0 0 16 16" fill="none" xmlns="http://www.w3.org/2000/svg">
<g clip-path="url(#clip0_28_927)">
<path d="M4.25284 15.0285L4.52586 14.9522C4.78846 14.8788 4.94185 14.6064 4.86847 14.3438L1.74701 3.17324C1.70296 3.01559 1.59809 2.88191 1.45547 2.80158C1.31285 2.72126 1.14417 2.70089 0.986527 2.74494L0.951268 2.75479C0.622977 2.84651 0.4312 3.187 0.522921 3.51529L3.64446 14.6858C3.71784 14.9484 3.99022 15.1018 4.25284 15.0285Z" fill="#746253"/>
<path d="M15.2453 7.222C14.2554 6.72842 13.3397 6.09841 12.5248 5.35039C12.4563 5.2877 12.4295 5.19145 12.4558 5.10238C12.8595 3.57497 13.1594 2.02198 13.3532 0.45405C13.3839 0.193253 13.2433 0.116547 13.095 0.295526C10.1853 3.77538 5.15091 -0.341127 2.1543 2.82168C2.19027 2.88904 2.21858 2.96023 2.23867 3.0339L4.26369 10.2851C7.26542 7.16064 12.2819 11.2516 15.1865 7.77939C15.3348 7.60041 15.3629 7.27314 15.2453 7.222Z" fill="#746253"/>
</g>
<defs>
<clipPath id="clip0_28_927">
<rect width="14.8297" height="14.8297" fill="white" transform="translate(0.5 0.211182)"/>
</clipPath>
</defs>
</svg>
