<svg width="169" height="191" viewBox="0 0 169 191" fill="none" xmlns="http://www.w3.org/2000/svg">
<path d="M88.3411 127.113L25.3848 137.833C22.9252 138.25 20.5926 136.601 20.1757 134.141L0.0644477 15.9939C-0.352522 13.5344 1.29723 11.2018 3.75674 10.7848L66.7131 0.0644477C69.1726 -0.352521 71.5052 1.29722 71.9221 3.75674L92.0334 121.904C92.4503 124.364 90.8006 126.696 88.3411 127.113Z" fill="#EDE6DE"/>
<path d="M85.1935 118.745L25.5911 128.891C23.3733 129.266 21.2703 127.779 20.8957 125.561L3.57633 23.851C3.20166 21.6332 4.68825 19.5303 6.90604 19.1556L66.5085 9.00934C68.7263 8.63467 70.8292 10.1213 71.2039 12.3391L88.5172 114.043C88.8979 116.261 87.4113 118.364 85.1935 118.745Z" fill="white"/>
<path opacity="0.45" d="M60.4962 128.509L53.1721 129.736C52.3925 129.869 51.6492 129.337 51.5223 128.558C51.3894 127.778 51.9212 127.035 52.7007 126.908L60.0249 125.681C60.8044 125.548 61.5477 126.08 61.6746 126.86C61.8076 127.639 61.2758 128.376 60.4962 128.509Z" fill="url(#paint0_linear_28_972)"/>
<path d="M77.6816 89.1146L23.0224 98.5659C22.1341 98.7169 21.282 98.1247 21.1309 97.2304L15.7647 66.2054C15.6137 65.3171 16.2059 64.465 17.1002 64.314L71.7595 54.8627C72.6478 54.7116 73.4998 55.3038 73.6509 56.1982L79.0171 87.2231C79.1682 88.1175 78.5699 88.9635 77.6816 89.1146Z" stroke="url(#paint1_linear_28_972)" stroke-width="0.205904" stroke-miterlimit="10"/>
<path d="M16.1572 64.8458L78.9504 88.0269" stroke="url(#paint2_linear_28_972)" stroke-width="0.205904" stroke-miterlimit="10"/>
<path d="M73.138 55.2681L22.0684 98.4455" stroke="url(#paint3_linear_28_972)" stroke-width="0.205904" stroke-miterlimit="10"/>
<path d="M26.4981 33.2364L26.7125 33.1993L26.9153 34.3718C26.9362 34.4928 26.9263 34.6059 26.8857 34.7108C26.8456 34.8152 26.7787 34.9036 26.6849 34.9762C26.5911 35.0482 26.4748 35.0963 26.3358 35.1203C26.1969 35.1443 26.0712 35.1382 25.9586 35.1018C25.8459 35.0649 25.7529 35.0041 25.6795 34.9194C25.6066 34.8341 25.5596 34.7309 25.5387 34.6098L25.3359 33.4373L25.5504 33.4002L25.7501 34.5555C25.7651 34.6419 25.7974 34.7156 25.8471 34.7765C25.8967 34.8367 25.96 34.8801 26.037 34.9066C26.1145 34.9324 26.2026 34.9367 26.3011 34.9197C26.3997 34.9026 26.4812 34.869 26.5455 34.8187C26.6097 34.7678 26.6548 34.7057 26.6807 34.6323C26.7071 34.5583 26.7128 34.478 26.6978 34.3916L26.4981 33.2364ZM27.5054 35.3989L27.1896 33.5727L27.3868 33.5386L27.4233 33.7496L27.4475 33.7454C27.4585 33.7198 27.4741 33.6868 27.4945 33.6465C27.5153 33.6055 27.5483 33.5665 27.5936 33.5296C27.6393 33.492 27.7054 33.4657 27.7919 33.4508C27.9037 33.4314 28.0071 33.4423 28.1021 33.4835C28.1971 33.5247 28.2774 33.5924 28.343 33.6868C28.4086 33.7811 28.4534 33.898 28.4776 34.0375C28.5019 34.1782 28.499 34.3042 28.469 34.4157C28.4389 34.5266 28.3864 34.6176 28.3114 34.6887C28.2364 34.7593 28.1435 34.8041 28.0328 34.8233C27.9475 34.838 27.8767 34.8357 27.8206 34.8164C27.7643 34.7964 27.7191 34.7707 27.6852 34.7391C27.6511 34.707 27.6245 34.6802 27.6054 34.6585L27.5881 34.6615L27.7095 35.3637L27.5054 35.3989ZM27.5051 34.2021C27.5224 34.3024 27.5524 34.3884 27.5951 34.4599C27.6376 34.531 27.6909 34.5832 27.7549 34.6167C27.8187 34.6495 27.8916 34.6589 27.9734 34.6448C28.0588 34.63 28.1261 34.5952 28.1754 34.5404C28.2251 34.4849 28.2578 34.4163 28.2734 34.3346C28.2894 34.2523 28.2892 34.1639 28.2729 34.0693C28.2568 33.976 28.2278 33.8943 28.186 33.8243C28.1447 33.7537 28.0914 33.7015 28.0262 33.6676C27.9615 33.6331 27.8859 33.6233 27.7994 33.6383C27.7164 33.6526 27.6503 33.6857 27.6011 33.7376C27.5517 33.7888 27.5192 33.8544 27.5033 33.9344C27.4873 34.0137 27.4879 34.103 27.5051 34.2021ZM28.8009 32.8381L29.1072 34.609L28.9031 34.6443L28.5969 32.8734L28.8009 32.8381ZM30.0253 34.4787C29.9054 34.4995 29.7952 34.4891 29.6948 34.4477C29.595 34.4062 29.5109 34.3385 29.4424 34.2447C29.3745 34.1507 29.3287 34.0352 29.305 33.898C29.2811 33.7596 29.2853 33.6345 29.3176 33.5227C29.3505 33.4107 29.4069 33.3184 29.487 33.2458C29.5676 33.1731 29.6679 33.1264 29.7878 33.1056C29.9077 33.0849 30.0176 33.0953 30.1174 33.1368C30.2177 33.1782 30.3019 33.2462 30.3699 33.3407C30.4385 33.4351 30.4847 33.5515 30.5087 33.6898C30.5324 33.827 30.5277 33.9513 30.4948 34.0627C30.4624 34.174 30.4058 34.266 30.3252 34.3387C30.2451 34.4113 30.1452 34.458 30.0253 34.4787ZM29.9936 34.2954C30.0846 34.2797 30.1555 34.2434 30.2063 34.1865C30.257 34.1297 30.2899 34.0607 30.305 33.9798C30.3201 33.8988 30.3199 33.8139 30.3046 33.7251C30.2892 33.6364 30.2608 33.5561 30.2193 33.4843C30.1778 33.4125 30.1236 33.3581 30.0566 33.321C29.9896 33.2839 29.9106 33.2732 29.8195 33.2889C29.7284 33.3047 29.6576 33.3413 29.607 33.3987C29.5563 33.4562 29.5235 33.5257 29.5085 33.6072C29.4935 33.6888 29.4937 33.7739 29.5091 33.8627C29.5244 33.9515 29.5528 34.0315 29.5942 34.1027C29.6356 34.1739 29.6898 34.2277 29.7566 34.2643C29.8235 34.3008 29.9025 34.3112 29.9936 34.2954ZM31.33 34.2567C31.2458 34.2712 31.1667 34.2686 31.0926 34.2487C31.0185 34.2283 30.956 34.1913 30.9051 34.1378C30.8542 34.0837 30.8213 34.0134 30.8063 33.9269C30.7932 33.8508 30.7975 33.7865 30.8193 33.7341C30.841 33.6811 30.8746 33.6367 30.9201 33.6009C30.9655 33.5651 31.0174 33.5354 31.0756 33.5117C31.1343 33.4873 31.1938 33.4657 31.2541 33.4469C31.333 33.4226 31.3971 33.4035 31.4464 33.3897C31.4961 33.3751 31.5313 33.3592 31.5521 33.342C31.5734 33.3246 31.5813 33.2995 31.5756 33.2667L31.5744 33.2598C31.5596 33.1744 31.5248 33.1122 31.47 33.073C31.4157 33.0337 31.3415 33.0222 31.2476 33.0384C31.1502 33.0553 31.0775 33.0898 31.0295 33.142C30.9815 33.1943 30.9505 33.2465 30.9364 33.2988L30.7307 33.2632C30.7514 33.1765 30.7866 33.1057 30.8365 33.0507C30.8868 32.9951 30.9448 32.9525 31.0103 32.9227C31.0763 32.8923 31.1427 32.8713 31.2096 32.8598C31.2522 32.8524 31.3021 32.8491 31.3593 32.8499C31.4169 32.85 31.4743 32.8612 31.5316 32.8833C31.5894 32.9054 31.6411 32.9449 31.6865 33.0017C31.732 33.0586 31.7638 33.1397 31.782 33.2452L31.9334 34.1203L31.7293 34.1556L31.6982 33.9757L31.6878 33.9775C31.679 34.0087 31.6612 34.0436 31.6346 34.082C31.608 34.1204 31.5699 34.1558 31.5203 34.1882C31.4707 34.2205 31.4073 34.2433 31.33 34.2567ZM31.3294 34.068C31.4101 34.054 31.4754 34.0264 31.5253 33.9851C31.5757 33.9438 31.6107 33.8956 31.6303 33.8405C31.6504 33.7854 31.6557 33.7302 31.6462 33.6748L31.6139 33.488C31.607 33.4999 31.5896 33.5127 31.5617 33.5264C31.5343 33.5395 31.5021 33.5525 31.4652 33.5654C31.4287 33.5777 31.393 33.5892 31.358 33.6C31.3236 33.6101 31.2956 33.6185 31.2742 33.6251C31.2224 33.6412 31.1748 33.661 31.1313 33.6846C31.0884 33.7074 31.0554 33.7366 31.0325 33.772C31.01 33.8068 31.0032 33.8501 31.0122 33.902C31.0245 33.9729 31.06 34.022 31.1187 34.0492C31.1779 34.0758 31.2482 34.082 31.3294 34.068ZM32.8121 33.9968C32.7014 34.016 32.5989 34.0049 32.5045 33.9636C32.41 33.9218 32.3299 33.8537 32.2643 33.7594C32.1987 33.6645 32.1537 33.5467 32.1293 33.406C32.1052 33.2665 32.1082 33.1413 32.1383 33.0305C32.1684 32.9196 32.2213 32.8288 32.2969 32.7581C32.3726 32.6875 32.4663 32.6425 32.5781 32.6231C32.6646 32.6082 32.7354 32.6108 32.7905 32.6309C32.8462 32.6504 32.8904 32.676 32.9232 32.7077C32.9564 32.7388 32.9826 32.7645 33.0015 32.785L33.0188 32.782L32.9058 32.1283L33.1099 32.093L33.4161 33.8639L33.2189 33.898L33.1836 33.6939L33.1594 33.6981C33.1486 33.7249 33.1326 33.7591 33.1113 33.8008C33.0899 33.8419 33.056 33.8813 33.0097 33.919C32.9633 33.9561 32.8974 33.9821 32.8121 33.9968ZM32.8081 33.8087C32.89 33.7946 32.9554 33.7613 33.0046 33.7089C33.0536 33.6559 33.0862 33.5888 33.1024 33.5076C33.1186 33.4258 33.118 33.3348 33.1006 33.2345C33.0835 33.1354 33.0541 33.0511 33.0124 32.9817C32.9706 32.9118 32.9179 32.8609 32.8542 32.8292C32.7904 32.7969 32.7171 32.7879 32.634 32.8022C32.5476 32.8172 32.4794 32.8518 32.4294 32.9062C32.3799 32.9599 32.3473 33.027 32.3315 33.1075C32.3162 33.1873 32.3167 33.2739 32.3328 33.3673C32.3491 33.4618 32.3784 33.5452 32.4206 33.6175C32.4632 33.6891 32.517 33.7427 32.582 33.7784C32.6474 33.8134 32.7228 33.8235 32.8081 33.8087ZM34.4389 31.8632L34.7451 33.6341L34.5307 33.6712L34.2244 31.9003L34.4389 31.8632ZM35.1474 33.5645L34.9177 32.2364L35.1149 32.2023L35.1508 32.4098L35.168 32.4068C35.1835 32.3311 35.2186 32.2683 35.2735 32.2185C35.3283 32.168 35.3989 32.1353 35.4854 32.1204C35.573 32.1052 35.6494 32.1125 35.7145 32.1422C35.7801 32.1712 35.8354 32.2184 35.8805 32.2836L35.8944 32.2812C35.9165 32.2067 35.9581 32.1434 36.0192 32.0913C36.0801 32.0386 36.1581 32.004 36.2533 31.9876C36.372 31.9671 36.4756 31.9874 36.5639 32.0487C36.6522 32.1095 36.7099 32.2179 36.7369 32.3742L36.8906 33.2631L36.6865 33.2983L36.5328 32.4095C36.5159 32.3115 36.4769 32.2461 36.4161 32.2132C36.3552 32.1804 36.2884 32.1703 36.2158 32.1829C36.1224 32.199 36.0549 32.2398 36.0134 32.3051C35.9718 32.3699 35.9584 32.4453 35.9732 32.5312L36.1227 33.3958L35.9152 33.4317L35.7579 32.5221C35.7449 32.4466 35.7098 32.39 35.6529 32.3523C35.5958 32.3141 35.5286 32.3017 35.4514 32.315C35.3984 32.3242 35.3512 32.3469 35.31 32.3831C35.2693 32.4193 35.2392 32.4648 35.2197 32.5199C35.2006 32.5742 35.1966 32.634 35.2079 32.6991L35.3515 33.5292L35.1474 33.5645ZM37.6599 33.1621C37.5758 33.1766 37.4966 33.174 37.4225 33.1542C37.3484 33.1337 37.2859 33.0967 37.2351 33.0432C37.1841 32.9891 37.1512 32.9188 37.1362 32.8323C37.1231 32.7562 37.1274 32.6919 37.1492 32.6395C37.1709 32.5865 37.2045 32.5421 37.25 32.5063C37.2954 32.4705 37.3473 32.4408 37.4055 32.4171C37.4642 32.3927 37.5237 32.3711 37.584 32.3524C37.6629 32.328 37.727 32.3089 37.7763 32.2951C37.826 32.2805 37.8612 32.2646 37.882 32.2474C37.9033 32.23 37.9112 32.2049 37.9055 32.1721L37.9043 32.1652C37.8895 32.0799 37.8547 32.0176 37.7999 31.9784C37.7456 31.9391 37.6714 31.9276 37.5775 31.9438C37.4801 31.9607 37.4074 31.9952 37.3594 32.0474C37.3114 32.0997 37.2804 32.1519 37.2663 32.2042L37.0607 32.1686C37.0813 32.0819 37.1165 32.0111 37.1664 31.9561C37.2168 31.9005 37.2747 31.8579 37.3402 31.8281C37.4062 31.7977 37.4726 31.7767 37.5395 31.7652C37.5821 31.7578 37.632 31.7545 37.6892 31.7553C37.7468 31.7555 37.8042 31.7666 37.8615 31.7888C37.9193 31.8108 37.971 31.8503 38.0164 31.9071C38.0619 31.964 38.0937 32.0451 38.1119 32.1506L38.2633 33.0257L38.0592 33.061L38.0281 32.8811L38.0177 32.8829C38.0089 32.9141 37.9911 32.949 37.9645 32.9874C37.938 33.0258 37.8998 33.0612 37.8502 33.0936C37.8006 33.1259 37.7372 33.1487 37.6599 33.1621ZM37.6593 32.9734C37.74 32.9594 37.8053 32.9318 37.8552 32.8905C37.9056 32.8492 37.9406 32.801 37.9602 32.7459C37.9803 32.6908 37.9856 32.6356 37.9761 32.5802L37.9438 32.3934C37.9369 32.4053 37.9195 32.4181 37.8916 32.4318C37.8642 32.4449 37.832 32.4579 37.7951 32.4708C37.7586 32.4831 37.7229 32.4946 37.6879 32.5054C37.6535 32.5155 37.6255 32.5239 37.6041 32.5305C37.5523 32.5466 37.5047 32.5664 37.4612 32.59C37.4183 32.6128 37.3853 32.642 37.3624 32.6774C37.3399 32.7122 37.3331 32.7555 37.3421 32.8074C37.3544 32.8783 37.3899 32.9274 37.4486 32.9546C37.5078 32.9812 37.5781 32.9874 37.6593 32.9734ZM39.2627 33.3943C39.1642 33.4114 39.0772 33.4133 39.0019 33.4002C38.9268 33.3877 38.862 33.3651 38.8076 33.3323C38.754 33.3 38.7093 33.2632 38.6737 33.2219L38.8165 33.0796C38.8391 33.1007 38.8673 33.1243 38.9009 33.1505C38.9346 33.1774 38.978 33.1981 39.031 33.2126C39.0846 33.2277 39.1515 33.2283 39.2316 33.2145C39.3389 33.1959 39.4229 33.1547 39.4836 33.0907C39.5444 33.0268 39.5652 32.9395 39.5461 32.8288L39.4995 32.559L39.4822 32.562C39.4714 32.5888 39.4552 32.6225 39.4337 32.663C39.4127 32.7028 39.3789 32.741 39.3324 32.7776C39.2864 32.8134 39.2201 32.8389 39.1337 32.8538C39.0264 32.8723 38.9258 32.8636 38.8317 32.8277C38.7382 32.7916 38.6583 32.7294 38.5919 32.6411C38.5262 32.5528 38.4814 32.4394 38.4574 32.3011C38.4339 32.165 38.4374 32.0424 38.4678 31.9333C38.4981 31.8235 38.5511 31.7336 38.6268 31.6635C38.7025 31.5929 38.7962 31.5479 38.908 31.5285C38.9945 31.5136 39.0656 31.5161 39.1213 31.5362C39.1775 31.5555 39.2223 31.581 39.2557 31.6127C39.2895 31.6436 39.3159 31.6693 39.3349 31.6898L39.3556 31.6862L39.3192 31.4752L39.5163 31.4411L39.7526 32.8073C39.7723 32.9215 39.7624 33.0188 39.7229 33.0992C39.684 33.1802 39.624 33.2449 39.5427 33.2933C39.4621 33.3423 39.3688 33.376 39.2627 33.3943ZM39.1296 32.6657C39.2115 32.6516 39.2774 32.6209 39.3274 32.5736C39.3774 32.5264 39.4111 32.4651 39.4283 32.3896C39.4455 32.3142 39.4457 32.2275 39.4287 32.1295C39.4122 32.0338 39.3832 31.9519 39.3417 31.8837C39.3002 31.8154 39.2476 31.7654 39.184 31.7337C39.1203 31.702 39.047 31.6933 38.964 31.7076C38.8775 31.7226 38.8092 31.757 38.7591 31.8107C38.7097 31.8644 38.6769 31.9306 38.6608 32.0094C38.6453 32.0881 38.6454 32.1724 38.6609 32.2623C38.6769 32.3545 38.7054 32.4336 38.7465 32.4995C38.788 32.5648 38.8408 32.6126 38.9049 32.6431C38.9694 32.6729 39.0443 32.6805 39.1296 32.6657ZM40.6812 32.6361C40.5532 32.6582 40.4379 32.649 40.3353 32.6086C40.2332 32.5675 40.1483 32.5002 40.0805 32.4069C40.0132 32.3128 39.9678 32.1978 39.9442 32.0618C39.9207 31.9257 39.9248 31.8015 39.9564 31.6892C39.9885 31.5762 40.0442 31.4828 40.1235 31.4092C40.2032 31.3348 40.3031 31.2873 40.423 31.2665C40.4921 31.2546 40.5624 31.2543 40.6339 31.2657C40.7053 31.2771 40.7732 31.3039 40.8375 31.3463C40.9017 31.388 40.9576 31.4484 41.0051 31.5274C41.0526 31.6065 41.0871 31.708 41.1085 31.8319L41.1234 31.9184L40.0997 32.0954L40.0692 31.919L40.8854 31.7779C40.8725 31.703 40.8459 31.6387 40.8058 31.5851C40.7662 31.5314 40.7161 31.4922 40.6554 31.4677C40.5954 31.443 40.5285 31.4371 40.4547 31.4499C40.3734 31.4639 40.3065 31.4963 40.2541 31.5469C40.2022 31.5968 40.1659 31.6565 40.1453 31.726C40.1247 31.7955 40.1207 31.8668 40.1333 31.94L40.1537 32.0576C40.171 32.1579 40.203 32.2399 40.2497 32.3037C40.2968 32.3668 40.3546 32.4111 40.4232 32.4367C40.4916 32.4617 40.567 32.467 40.6495 32.4528C40.7031 32.4435 40.7502 32.4276 40.7908 32.4052C40.832 32.382 40.8657 32.3524 40.8922 32.3164C40.9185 32.2798 40.9363 32.2369 40.9456 32.1878L41.1523 32.2091C41.1431 32.2795 41.1184 32.3444 41.0782 32.4036C41.0379 32.4622 40.9841 32.5118 40.917 32.5526C40.8497 32.5927 40.7711 32.6205 40.6812 32.6361Z" fill="#DCE9FF"/>
<path d="M47.2053 47.4663L43.785 53.2676C43.6037 53.5758 43.1867 53.6483 42.9148 53.4187L37.7419 49.104C37.3612 48.7897 37.5304 48.1734 38.0139 48.0887L39.011 47.9135C39.3252 47.8591 39.5367 47.557 39.4823 47.2427L38.5034 41.5864C38.449 41.2722 38.6605 40.9701 38.9747 40.9157L43.2834 40.1724C43.5976 40.118 43.8998 40.3295 43.9542 40.6437L44.9331 46.3C44.9875 46.6143 45.2897 46.8258 45.6039 46.7714L46.601 46.5961C47.0966 46.5176 47.4591 47.0433 47.2053 47.4663Z" fill="#746253"/>
<path d="M29.7794 107.098C30.0997 108.959 28.8548 110.73 26.9936 111.05C25.1323 111.37 23.3617 110.125 23.0414 108.264C22.7212 106.403 23.966 104.632 25.8273 104.312C27.6885 103.992 29.4531 105.237 29.7794 107.098Z" fill="#746253"/>
<path d="M34.4971 106.283L68.8034 100.349" stroke="url(#paint4_linear_28_972)" stroke-width="0.205904" stroke-miterlimit="10"/>
<path d="M34.9629 108.96L60.0354 104.621" stroke="url(#paint5_linear_28_972)" stroke-width="0.205904" stroke-miterlimit="10"/>
<path d="M35.4219 111.637L69.7282 105.703" stroke="url(#paint6_linear_28_972)" stroke-width="0.205904" stroke-miterlimit="10"/>
<path d="M35.8887 114.314L50.2953 111.824" stroke="url(#paint7_linear_28_972)" stroke-width="0.205904" stroke-miterlimit="10"/>
<g opacity="0.17">
<path d="M7.62945 24.4551C7.6778 24.7391 7.49046 25.005 7.20644 25.0534C6.92242 25.1017 6.65652 24.9144 6.60818 24.6304C6.55984 24.3463 6.74717 24.0804 7.03119 24.0321C7.30917 23.9838 7.58111 24.1711 7.62945 24.4551Z" fill="url(#paint8_linear_28_972)"/>
<path d="M11.4556 23.7896C11.504 24.0736 11.3166 24.3395 11.0326 24.3879C10.7486 24.4362 10.4827 24.2489 10.4344 23.9649C10.386 23.6808 10.5733 23.415 10.8574 23.3666C11.1353 23.3183 11.4073 23.5116 11.4556 23.7896Z" fill="url(#paint9_linear_28_972)"/>
<path d="M15.2808 23.1303C15.3292 23.4143 15.1418 23.6802 14.8578 23.7285C14.5738 23.7769 14.3079 23.5896 14.2595 23.3055C14.2112 23.0215 14.3985 22.7556 14.6826 22.7073C14.9605 22.6589 15.2325 22.8463 15.2808 23.1303Z" fill="url(#paint10_linear_28_972)"/>
<path d="M19.107 22.4661C19.1553 22.7501 18.968 23.016 18.684 23.0643C18.4 23.1127 18.1341 22.9253 18.0857 22.6413C18.0374 22.3573 18.2247 22.0914 18.5087 22.0431C18.7867 21.9947 19.0586 22.1881 19.107 22.4661Z" fill="url(#paint11_linear_28_972)"/>
<path d="M22.9302 21.8086C22.9786 22.0926 22.7912 22.3585 22.5072 22.4069C22.2232 22.4552 21.9573 22.2679 21.909 21.9839C21.8606 21.6999 22.0479 21.434 22.332 21.3856C22.61 21.3373 22.8819 21.5246 22.9302 21.8086Z" fill="url(#paint12_linear_28_972)"/>
<path d="M26.7564 21.143C26.8047 21.427 26.6174 21.6929 26.3334 21.7412C26.0494 21.7896 25.7835 21.6023 25.7351 21.3182C25.6868 21.0342 25.8741 20.7683 26.1581 20.72C26.4361 20.6777 26.7081 20.865 26.7564 21.143Z" fill="url(#paint13_linear_28_972)"/>
<path d="M8.15777 27.5076C8.20612 27.7917 8.01878 28.0576 7.73476 28.1059C7.45074 28.1543 7.18485 27.9669 7.1365 27.6829C7.08816 27.3989 7.27549 27.133 7.55951 27.0846C7.84354 27.0423 8.10943 27.2297 8.15777 27.5076Z" fill="url(#paint14_linear_28_972)"/>
<path d="M11.9839 26.8485C12.0323 27.1325 11.845 27.3984 11.5609 27.4467C11.2769 27.4951 11.011 27.3077 10.9627 27.0237C10.9143 26.7397 11.1017 26.4738 11.3857 26.4254C11.6697 26.3771 11.9356 26.5644 11.9839 26.8485Z" fill="url(#paint15_linear_28_972)"/>
<path d="M15.8091 26.1838C15.8575 26.4678 15.6702 26.7337 15.3861 26.782C15.1021 26.8304 14.8362 26.643 14.7879 26.359C14.7395 26.075 14.9269 25.8091 15.2109 25.7607C15.4949 25.7184 15.7608 25.9058 15.8091 26.1838Z" fill="url(#paint16_linear_28_972)"/>
<path d="M19.6324 25.5259C19.6807 25.8099 19.4934 26.0758 19.2094 26.1241C18.9253 26.1725 18.6595 25.9851 18.6111 25.7011C18.5628 25.4171 18.7501 25.1512 19.0341 25.1028C19.3181 25.0545 19.584 25.2418 19.6324 25.5259Z" fill="url(#paint17_linear_28_972)"/>
<path d="M23.4586 24.8612C23.5069 25.1452 23.3196 25.4111 23.0355 25.4594C22.7515 25.5078 22.4856 25.3204 22.4373 25.0364C22.3889 24.7524 22.5763 24.4865 22.8603 24.4381C23.1443 24.3958 23.4102 24.5832 23.4586 24.8612Z" fill="url(#paint18_linear_28_972)"/>
<path d="M27.2847 24.202C27.3331 24.486 27.1457 24.7519 26.8617 24.8003C26.5777 24.8486 26.3118 24.6613 26.2635 24.3772C26.2151 24.0932 26.4024 23.8273 26.6865 23.779C26.9705 23.7306 27.2364 23.918 27.2847 24.202Z" fill="url(#paint19_linear_28_972)"/>
<path d="M8.68024 30.5636C8.72858 30.8477 8.54125 31.1136 8.25722 31.1619C7.9732 31.2102 7.70731 31.0229 7.65896 30.7389C7.61062 30.4549 7.79795 30.189 8.08197 30.1406C8.366 30.0923 8.63189 30.2857 8.68024 30.5636Z" fill="url(#paint20_linear_28_972)"/>
<path d="M12.5113 29.9043C12.5596 30.1883 12.3723 30.4542 12.0883 30.5025C11.8043 30.5509 11.5384 30.3635 11.49 30.0795C11.4417 29.7955 11.629 29.5296 11.913 29.4813C12.191 29.4329 12.4569 29.6202 12.5113 29.9043Z" fill="url(#paint21_linear_28_972)"/>
<path d="M16.3375 29.2388C16.3858 29.5228 16.1985 29.7887 15.9144 29.8371C15.6304 29.8854 15.3645 29.6981 15.3162 29.4141C15.2678 29.13 15.4552 28.8641 15.7392 28.8158C16.0172 28.7675 16.2891 28.9608 16.3375 29.2388Z" fill="url(#paint22_linear_28_972)"/>
<path d="M20.1627 28.5817C20.211 28.8657 20.0237 29.1316 19.7396 29.18C19.4556 29.2283 19.1897 29.041 19.1414 28.7569C19.093 28.4729 19.2804 28.207 19.5644 28.1587C19.8424 28.1103 20.1143 28.2977 20.1627 28.5817Z" fill="url(#paint23_linear_28_972)"/>
<path d="M23.9888 27.9162C24.0372 28.2002 23.8498 28.4661 23.5658 28.5145C23.2818 28.5628 23.0159 28.3755 22.9676 28.0915C22.9192 27.8074 23.1065 27.5415 23.3906 27.4932C23.6685 27.4449 23.9405 27.6382 23.9888 27.9162Z" fill="url(#paint24_linear_28_972)"/>
<path d="M27.8121 27.2578C27.8604 27.5418 27.6731 27.8077 27.3891 27.8561C27.105 27.9044 26.8391 27.7171 26.7908 27.4331C26.7425 27.149 26.9298 26.8831 27.2138 26.8348C27.4918 26.7865 27.7637 26.9738 27.8121 27.2578Z" fill="url(#paint25_linear_28_972)"/>
<path d="M9.21442 33.6219C9.26276 33.9059 9.07543 34.1718 8.7914 34.2201C8.50738 34.2685 8.24149 34.0811 8.19314 33.7971C8.1448 33.5131 8.33213 33.2472 8.61615 33.1988C8.90018 33.1505 9.16607 33.3378 9.21442 33.6219Z" fill="url(#paint26_linear_28_972)"/>
<path d="M13.0406 32.9575C13.0889 33.2415 12.9016 33.5074 12.6176 33.5557C12.3335 33.6041 12.0677 33.4167 12.0193 33.1327C11.971 32.8487 12.1583 32.5828 12.4423 32.5345C12.7263 32.4922 12.9922 32.6795 13.0406 32.9575Z" fill="url(#paint27_linear_28_972)"/>
<path d="M16.8638 32.2983C16.9122 32.5823 16.7248 32.8482 16.4408 32.8966C16.1568 32.9449 15.8909 32.7576 15.8426 32.4736C15.7942 32.1895 15.9815 31.9236 16.2656 31.8753C16.5496 31.827 16.8155 32.0143 16.8638 32.2983Z" fill="url(#paint28_linear_28_972)"/>
<path d="M20.689 31.6336C20.7374 31.9176 20.55 32.1835 20.266 32.2319C19.982 32.2802 19.7161 32.0929 19.6678 31.8089C19.6194 31.5248 19.8067 31.259 20.0908 31.2106C20.3748 31.1683 20.6407 31.3556 20.689 31.6336Z" fill="url(#paint29_linear_28_972)"/>
<path d="M24.5152 30.9744C24.5635 31.2585 24.3762 31.5243 24.0922 31.5727C23.8082 31.621 23.5423 31.4337 23.4939 31.1497C23.4456 30.8657 23.6329 30.5998 23.9169 30.5514C24.201 30.5031 24.4668 30.6904 24.5152 30.9744Z" fill="url(#paint30_linear_28_972)"/>
<path d="M28.3414 30.3159C28.3897 30.5999 28.2024 30.8658 27.9184 30.9141C27.6343 30.9625 27.3684 30.7751 27.3201 30.4911C27.2718 30.2071 27.4591 29.9412 27.7431 29.8928C28.0271 29.8445 28.293 30.0318 28.3414 30.3159Z" fill="url(#paint31_linear_28_972)"/>
<path d="M9.73785 36.681C9.7862 36.9651 9.59886 37.231 9.31484 37.2793C9.03082 37.3276 8.76492 37.1403 8.71658 36.8563C8.66823 36.5723 8.85557 36.3064 9.13959 36.258C9.42361 36.2097 9.68951 36.397 9.73785 36.681Z" fill="url(#paint32_linear_28_972)"/>
<path d="M13.564 36.0156C13.6124 36.2996 13.425 36.5655 13.141 36.6138C12.857 36.6622 12.5911 36.4748 12.5428 36.1908C12.4944 35.9068 12.6817 35.6409 12.9658 35.5926C13.2498 35.5442 13.5157 35.7376 13.564 36.0156Z" fill="url(#paint33_linear_28_972)"/>
<path d="M17.3892 35.3559C17.4376 35.6399 17.2502 35.9058 16.9662 35.9542C16.6822 36.0025 16.4163 35.8152 16.3679 35.5311C16.3196 35.2471 16.5069 34.9812 16.791 34.9329C17.075 34.8845 17.3409 35.0719 17.3892 35.3559Z" fill="url(#paint34_linear_28_972)"/>
<path d="M21.2203 34.6917C21.2686 34.9757 21.0813 35.2416 20.7973 35.29C20.5132 35.3383 20.2473 35.151 20.199 34.8669C20.1507 34.5829 20.338 34.317 20.622 34.2687C20.9 34.2203 21.1659 34.4137 21.2203 34.6917Z" fill="url(#paint35_linear_28_972)"/>
<path d="M25.0435 34.0333C25.0919 34.3173 24.9045 34.5832 24.6205 34.6316C24.3365 34.6799 24.0706 34.4926 24.0222 34.2085C23.9739 33.9245 24.1612 33.6586 24.4453 33.6103C24.7232 33.5619 24.9952 33.7493 25.0435 34.0333Z" fill="url(#paint36_linear_28_972)"/>
<path d="M28.8697 33.3686C28.918 33.6526 28.7307 33.9185 28.4467 33.9669C28.1627 34.0152 27.8968 33.8279 27.8484 33.5439C27.8001 33.2598 27.9874 32.9939 28.2714 32.9456C28.5494 32.9033 28.8213 33.0906 28.8697 33.3686Z" fill="url(#paint37_linear_28_972)"/>
<path d="M10.273 39.732C10.3214 40.016 10.134 40.2819 9.85 40.3303C9.56597 40.3786 9.30008 40.1913 9.25174 39.9073C9.20339 39.6232 9.39073 39.3573 9.67475 39.309C9.95273 39.2667 10.2247 39.454 10.273 39.732Z" fill="url(#paint38_linear_28_972)"/>
<path d="M14.0992 39.0728C14.1475 39.3568 13.9602 39.6227 13.6762 39.6711C13.3921 39.7194 13.1263 39.5321 13.0779 39.2481C13.0296 38.964 13.2169 38.6982 13.5009 38.6498C13.7849 38.6015 14.0508 38.7888 14.0992 39.0728Z" fill="url(#paint39_linear_28_972)"/>
<path d="M17.9244 38.4081C17.9727 38.6921 17.7854 38.958 17.5014 39.0064C17.2173 39.0547 16.9514 38.8674 16.9031 38.5834C16.8548 38.2994 17.0421 38.0335 17.3261 37.9851C17.6101 37.9428 17.876 38.1301 17.9244 38.4081Z" fill="url(#paint40_linear_28_972)"/>
<path d="M21.7476 37.749C21.796 38.033 21.6086 38.2989 21.3246 38.3472C21.0406 38.3956 20.7747 38.2082 20.7263 37.9242C20.678 37.6402 20.8653 37.3743 21.1494 37.326C21.4334 37.2776 21.6993 37.4649 21.7476 37.749Z" fill="url(#paint41_linear_28_972)"/>
<path d="M25.5738 37.0916C25.6221 37.3757 25.4348 37.6416 25.1508 37.6899C24.8668 37.7383 24.6009 37.5509 24.5525 37.2669C24.5042 36.9829 24.6915 36.717 24.9755 36.6686C25.2595 36.6203 25.5254 36.8076 25.5738 37.0916Z" fill="url(#paint42_linear_28_972)"/>
<path d="M29.4 36.4262C29.4483 36.7102 29.261 36.9761 28.977 37.0244C28.6929 37.0728 28.427 36.8855 28.3787 36.6014C28.3303 36.3174 28.5177 36.0515 28.8017 36.0032C29.0857 35.9548 29.3516 36.1482 29.4 36.4262Z" fill="url(#paint43_linear_28_972)"/>
<path d="M10.7964 42.7885C10.8448 43.0725 10.6575 43.3384 10.3734 43.3867C10.0894 43.4351 9.82352 43.2477 9.77517 42.9637C9.72683 42.6797 9.91416 42.4138 10.1982 42.3654C10.4822 42.3171 10.7481 42.5105 10.7964 42.7885Z" fill="url(#paint44_linear_28_972)"/>
<path d="M14.6226 42.1291C14.671 42.4131 14.4836 42.679 14.1996 42.7274C13.9156 42.7757 13.6497 42.5884 13.6013 42.3043C13.553 42.0203 13.7403 41.7544 14.0244 41.7061C14.3084 41.6577 14.5743 41.8451 14.6226 42.1291Z" fill="url(#paint45_linear_28_972)"/>
<path d="M18.4478 41.4649C18.4962 41.7489 18.3088 42.0148 18.0248 42.0632C17.7408 42.1115 17.4749 41.9242 17.4265 41.6402C17.3782 41.3561 17.5655 41.0902 17.8496 41.0419C18.1336 40.9936 18.3995 41.1869 18.4478 41.4649Z" fill="url(#paint46_linear_28_972)"/>
<path d="M22.2711 40.8075C22.3194 41.0915 22.1321 41.3574 21.848 41.4057C21.564 41.4541 21.2981 41.2667 21.2498 40.9827C21.2014 40.6987 21.3888 40.4328 21.6728 40.3845C21.9568 40.3361 22.2227 40.5234 22.2711 40.8075Z" fill="url(#paint47_linear_28_972)"/>
<path d="M26.0972 40.141C26.1456 40.4251 25.9582 40.6909 25.6742 40.7393C25.3902 40.7876 25.1243 40.6003 25.076 40.3163C25.0276 40.0323 25.2149 39.7664 25.499 39.718C25.783 39.6697 26.0489 39.8631 26.0972 40.141Z" fill="url(#paint48_linear_28_972)"/>
<path d="M29.9234 39.4826C29.9717 39.7667 29.7844 40.0326 29.5004 40.0809C29.2164 40.1292 28.9505 39.9419 28.9021 39.6579C28.8538 39.3739 29.0411 39.108 29.3251 39.0596C29.6092 39.0113 29.8751 39.1986 29.9234 39.4826Z" fill="url(#paint49_linear_28_972)"/>
</g>
<g opacity="0.17">
<path d="M61.064 97.7613C61.1124 98.0453 60.925 98.3112 60.641 98.3596C60.357 98.4079 60.0911 98.2206 60.0428 97.9365C59.9944 97.6525 60.1817 97.3866 60.4658 97.3383C60.7498 97.2899 61.0157 97.4773 61.064 97.7613Z" fill="url(#paint50_linear_28_972)"/>
<path d="M64.8902 97.0958C64.9385 97.3798 64.7512 97.6457 64.4672 97.6941C64.1832 97.7424 63.9173 97.5551 63.8689 97.271C63.8206 96.987 64.0079 96.7211 64.2919 96.6728C64.576 96.6244 64.8419 96.8178 64.8902 97.0958Z" fill="url(#paint51_linear_28_972)"/>
<path d="M68.7154 96.4374C68.7637 96.7214 68.5764 96.9873 68.2924 97.0357C68.0084 97.084 67.7425 96.8967 67.6941 96.6127C67.6458 96.3286 67.8331 96.0627 68.1171 96.0144C68.4012 95.9661 68.667 96.1534 68.7154 96.4374Z" fill="url(#paint52_linear_28_972)"/>
<path d="M72.5386 95.7742C72.587 96.0582 72.3996 96.3241 72.1156 96.3724C71.8316 96.4208 71.5657 96.2335 71.5174 95.9494C71.469 95.6654 71.6563 95.3995 71.9404 95.3512C72.2244 95.3028 72.4903 95.4962 72.5386 95.7742Z" fill="url(#paint53_linear_28_972)"/>
<path d="M76.3648 95.1148C76.4132 95.3989 76.2258 95.6647 75.9418 95.7131C75.6578 95.7614 75.3919 95.5741 75.3435 95.2901C75.2952 95.0061 75.4825 94.7402 75.7665 94.6918C76.0506 94.6435 76.3165 94.8308 76.3648 95.1148Z" fill="url(#paint54_linear_28_972)"/>
<path d="M80.191 94.4493C80.2393 94.7334 80.052 94.9993 79.768 95.0476C79.4839 95.096 79.218 94.9086 79.1697 94.6246C79.1214 94.3406 79.3087 94.0747 79.5927 94.0263C79.8767 93.978 80.1426 94.1714 80.191 94.4493Z" fill="url(#paint55_linear_28_972)"/>
<path d="M61.5914 100.814C61.6397 101.098 61.4524 101.364 61.1684 101.413C60.8843 101.461 60.6184 101.274 60.5701 100.99C60.5218 100.705 60.7091 100.44 60.9931 100.391C61.2771 100.349 61.543 100.536 61.5914 100.814Z" fill="url(#paint56_linear_28_972)"/>
<path d="M65.4175 100.155C65.4659 100.439 65.2785 100.705 64.9945 100.753C64.7105 100.802 64.4446 100.614 64.3963 100.33C64.3479 100.046 64.5353 99.7804 64.8193 99.7321C65.1033 99.6837 65.3692 99.871 65.4175 100.155Z" fill="url(#paint57_linear_28_972)"/>
<path d="M69.2486 99.4891C69.2969 99.7731 69.1096 100.039 68.8256 100.087C68.5416 100.136 68.2757 99.9484 68.2273 99.6643C68.179 99.3803 68.3663 99.1144 68.6503 99.0661C68.9283 99.0238 69.1942 99.2111 69.2486 99.4891Z" fill="url(#paint58_linear_28_972)"/>
<path d="M73.0738 98.8312C73.1221 99.1152 72.9348 99.3811 72.6508 99.4295C72.3668 99.4778 72.1009 99.2905 72.0525 99.0065C72.0042 98.7224 72.1915 98.4565 72.4755 98.4082C72.7535 98.3599 73.0254 98.5472 73.0738 98.8312Z" fill="url(#paint59_linear_28_972)"/>
<path d="M76.897 98.1665C76.9454 98.4505 76.758 98.7164 76.474 98.7648C76.19 98.8131 75.9241 98.6258 75.8758 98.3418C75.8274 98.0577 76.0147 97.7919 76.2988 97.7435C76.5767 97.7012 76.8487 97.8885 76.897 98.1665Z" fill="url(#paint60_linear_28_972)"/>
<path d="M80.7232 97.5073C80.7715 97.7913 80.5842 98.0572 80.3002 98.1056C80.0162 98.1539 79.7503 97.9666 79.7019 97.6826C79.6536 97.3986 79.8409 97.1327 80.1249 97.0843C80.4029 97.036 80.6749 97.2233 80.7232 97.5073Z" fill="url(#paint61_linear_28_972)"/>
<path d="M62.1216 103.871C62.17 104.155 61.9826 104.42 61.6986 104.469C61.4146 104.517 61.1487 104.33 61.1004 104.046C61.052 103.762 61.2394 103.496 61.5234 103.448C61.8074 103.399 62.0733 103.587 62.1216 103.871Z" fill="url(#paint62_linear_28_972)"/>
<path d="M65.9478 103.212C65.9962 103.496 65.8088 103.762 65.5248 103.81C65.2408 103.859 64.9749 103.671 64.9265 103.387C64.8782 103.103 65.0655 102.837 65.3496 102.789C65.6336 102.741 65.8995 102.928 65.9478 103.212Z" fill="url(#paint63_linear_28_972)"/>
<path d="M69.773 102.548C69.8214 102.832 69.634 103.098 69.35 103.146C69.066 103.194 68.8001 103.007 68.7517 102.723C68.7034 102.439 68.8907 102.173 69.1748 102.125C69.4588 102.076 69.7247 102.27 69.773 102.548Z" fill="url(#paint64_linear_28_972)"/>
<path d="M73.5963 101.889C73.6446 102.173 73.4573 102.439 73.1732 102.488C72.8892 102.536 72.6233 102.349 72.575 102.065C72.5266 101.781 72.714 101.515 72.998 101.466C73.282 101.418 73.5479 101.605 73.5963 101.889Z" fill="url(#paint65_linear_28_972)"/>
<path d="M77.4224 101.224C77.4708 101.508 77.2834 101.774 76.9994 101.822C76.7154 101.871 76.4495 101.683 76.4011 101.399C76.3528 101.115 76.5401 100.849 76.8242 100.801C77.1082 100.753 77.3741 100.946 77.4224 101.224Z" fill="url(#paint66_linear_28_972)"/>
<path d="M81.2486 100.566C81.2969 100.85 81.1096 101.115 80.8256 101.164C80.5416 101.212 80.2757 101.025 80.2273 100.741C80.179 100.457 80.3663 100.191 80.6503 100.143C80.9344 100.094 81.2003 100.282 81.2486 100.566Z" fill="url(#paint67_linear_28_972)"/>
<path d="M62.649 106.93C62.6973 107.214 62.51 107.48 62.226 107.528C61.942 107.576 61.6761 107.389 61.6277 107.105C61.5794 106.821 61.7667 106.555 62.0507 106.507C62.3347 106.458 62.6006 106.646 62.649 106.93Z" fill="url(#paint68_linear_28_972)"/>
<path d="M66.4752 106.264C66.5235 106.548 66.3362 106.814 66.0521 106.862C65.7681 106.91 65.5022 106.723 65.4539 106.439C65.4055 106.155 65.5929 105.889 65.8769 105.841C66.1609 105.798 66.4268 105.986 66.4752 106.264Z" fill="url(#paint69_linear_28_972)"/>
<path d="M70.3004 105.604C70.3487 105.888 70.1614 106.154 69.8773 106.203C69.5933 106.251 69.3274 106.064 69.2791 105.78C69.2307 105.496 69.4181 105.23 69.7021 105.181C69.9861 105.133 70.252 105.32 70.3004 105.604Z" fill="url(#paint70_linear_28_972)"/>
<path d="M74.1236 104.941C74.1719 105.225 73.9846 105.491 73.7006 105.539C73.4166 105.588 73.1507 105.4 73.1023 105.116C73.054 104.832 73.2413 104.566 73.5253 104.518C73.8094 104.476 74.0752 104.663 74.1236 104.941Z" fill="url(#paint71_linear_28_972)"/>
<path d="M77.9546 104.282C78.003 104.566 77.8157 104.832 77.5316 104.88C77.2476 104.928 76.9817 104.741 76.9334 104.457C76.885 104.173 77.0724 103.907 77.3564 103.859C77.6344 103.811 77.9003 103.998 77.9546 104.282Z" fill="url(#paint72_linear_28_972)"/>
<path d="M81.7808 103.617C81.8292 103.901 81.6418 104.167 81.3578 104.215C81.0738 104.264 80.8079 104.076 80.7595 103.792C80.7112 103.508 80.8985 103.243 81.1826 103.194C81.4605 103.152 81.7325 103.339 81.7808 103.617Z" fill="url(#paint73_linear_28_972)"/>
<path d="M63.1783 109.987C63.2266 110.271 63.0393 110.537 62.7553 110.586C62.4712 110.634 62.2054 110.447 62.157 110.163C62.1087 109.879 62.296 109.613 62.58 109.564C62.858 109.516 63.1299 109.703 63.1783 109.987Z" fill="url(#paint74_linear_28_972)"/>
<path d="M67.0045 109.322C67.0528 109.606 66.8655 109.872 66.5814 109.92C66.2974 109.968 66.0315 109.781 65.9832 109.497C65.9348 109.213 66.1222 108.947 66.4062 108.899C66.6902 108.85 66.9561 109.044 67.0045 109.322Z" fill="url(#paint75_linear_28_972)"/>
<path d="M70.8296 108.663C70.878 108.947 70.6907 109.213 70.4066 109.262C70.1226 109.31 69.8567 109.123 69.8084 108.839C69.76 108.555 69.9474 108.289 70.2314 108.24C70.5154 108.192 70.7813 108.379 70.8296 108.663Z" fill="url(#paint76_linear_28_972)"/>
<path d="M74.6529 107.999C74.7012 108.283 74.5139 108.549 74.2299 108.598C73.9459 108.646 73.68 108.459 73.6316 108.175C73.5833 107.891 73.7706 107.625 74.0546 107.576C74.3387 107.528 74.6045 107.721 74.6529 107.999Z" fill="url(#paint77_linear_28_972)"/>
<path d="M78.4791 107.341C78.5274 107.625 78.3401 107.891 78.0561 107.939C77.772 107.987 77.5061 107.8 77.4578 107.516C77.4094 107.232 77.5968 106.966 77.8808 106.918C78.1648 106.869 78.4307 107.057 78.4791 107.341Z" fill="url(#paint78_linear_28_972)"/>
<path d="M82.3052 106.675C82.3536 106.959 82.1662 107.225 81.8822 107.274C81.5982 107.322 81.3323 107.135 81.284 106.851C81.2356 106.567 81.4229 106.301 81.707 106.252C81.991 106.204 82.2569 106.397 82.3052 106.675Z" fill="url(#paint79_linear_28_972)"/>
<path d="M63.7066 113.038C63.7549 113.322 63.5676 113.588 63.2836 113.637C62.9996 113.685 62.7337 113.498 62.6853 113.214C62.637 112.93 62.8243 112.664 63.1083 112.615C63.3924 112.573 63.6583 112.76 63.7066 113.038Z" fill="url(#paint80_linear_28_972)"/>
<path d="M67.5328 112.379C67.5811 112.663 67.3938 112.929 67.1098 112.977C66.8257 113.026 66.5598 112.838 66.5115 112.554C66.4632 112.27 66.6505 112.004 66.9345 111.956C67.2185 111.908 67.4844 112.095 67.5328 112.379Z" fill="url(#paint81_linear_28_972)"/>
<path d="M71.358 111.716C71.4063 112 71.219 112.266 70.935 112.314C70.6509 112.362 70.385 112.175 70.3367 111.891C70.2884 111.607 70.4757 111.341 70.7597 111.293C71.0437 111.25 71.3096 111.438 71.358 111.716Z" fill="url(#paint82_linear_28_972)"/>
<path d="M75.1841 111.057C75.2325 111.341 75.0451 111.607 74.7611 111.656C74.4771 111.704 74.2112 111.517 74.1629 111.233C74.1145 110.949 74.3019 110.683 74.5859 110.634C74.8699 110.586 75.1358 110.773 75.1841 111.057Z" fill="url(#paint83_linear_28_972)"/>
<path d="M79.0074 110.392C79.0557 110.676 78.8684 110.942 78.5844 110.99C78.3004 111.038 78.0345 110.851 77.9861 110.567C77.9378 110.283 78.1251 110.017 78.4091 109.969C78.6932 109.927 78.959 110.114 79.0074 110.392Z" fill="url(#paint84_linear_28_972)"/>
<path d="M82.8336 109.733C82.8819 110.017 82.6946 110.283 82.4105 110.331C82.1265 110.379 81.8606 110.192 81.8123 109.908C81.7639 109.624 81.9513 109.358 82.2353 109.31C82.5193 109.261 82.7852 109.449 82.8336 109.733Z" fill="url(#paint85_linear_28_972)"/>
<path d="M64.2369 116.096C64.2852 116.38 64.0979 116.646 63.8139 116.695C63.5298 116.743 63.2639 116.556 63.2156 116.272C63.1673 115.988 63.3546 115.722 63.6386 115.673C63.9226 115.625 64.1885 115.818 64.2369 116.096Z" fill="url(#paint86_linear_28_972)"/>
<path d="M68.063 115.437C68.1114 115.721 67.9241 115.987 67.64 116.035C67.356 116.084 67.0901 115.896 67.0418 115.612C66.9934 115.328 67.1808 115.062 67.4648 115.014C67.7428 114.966 68.0147 115.153 68.063 115.437Z" fill="url(#paint87_linear_28_972)"/>
<path d="M71.8882 114.773C71.9366 115.057 71.7493 115.323 71.4652 115.371C71.1812 115.42 70.9153 115.232 70.867 114.948C70.8186 114.664 71.006 114.398 71.29 114.35C71.568 114.302 71.8399 114.495 71.8882 114.773Z" fill="url(#paint88_linear_28_972)"/>
<path d="M75.7115 114.115C75.7598 114.399 75.5725 114.664 75.2885 114.713C75.0045 114.761 74.7386 114.574 74.6902 114.29C74.6419 114.006 74.8292 113.74 75.1132 113.692C75.3972 113.643 75.6631 113.831 75.7115 114.115Z" fill="url(#paint89_linear_28_972)"/>
<path d="M79.5377 113.449C79.586 113.733 79.3987 113.999 79.1146 114.047C78.8306 114.096 78.5647 113.908 78.5164 113.624C78.468 113.34 78.6554 113.074 78.9394 113.026C79.2234 112.978 79.4893 113.171 79.5377 113.449Z" fill="url(#paint90_linear_28_972)"/>
<path d="M83.3638 112.791C83.4122 113.075 83.2248 113.341 82.9408 113.389C82.6568 113.437 82.3909 113.25 82.3426 112.966C82.2942 112.682 82.4815 112.416 82.7656 112.368C83.0496 112.319 83.3155 112.507 83.3638 112.791Z" fill="url(#paint91_linear_28_972)"/>
</g>
<path d="M111.341 67.6787L70.0313 83.4691L56.3196 88.7145C55.6428 88.9743 54.8874 88.6359 54.6276 87.9591L41.8466 54.517C41.5867 53.8401 41.9312 53.0848 42.6019 52.8249L97.6237 31.7891C98.3006 31.5353 99.0559 31.8737 99.3158 32.5445L100.796 36.406L112.103 65.9866C112.357 66.6695 112.018 67.4249 111.341 67.6787Z" fill="#725C49"/>
<path d="M108.06 66.9706L58.2954 85.994C57.6851 86.2297 57.0022 85.9215 56.7665 85.3112L45.2062 55.0658C44.9705 54.4555 45.2787 53.7726 45.8891 53.5369L95.6534 34.5135C96.2638 34.2778 96.9466 34.586 97.1823 35.1963L108.743 65.4417C108.978 66.052 108.67 66.7349 108.06 66.9706Z" fill="white"/>
<path d="M71.8013 68.7607L72.8045 61.3036C72.9012 60.5905 73.6747 60.1917 74.3092 60.518L76.7808 61.7991C77.4093 62.1255 78.1767 61.7387 78.2855 61.0377L79.198 55.1458C79.3249 54.3179 80.3341 53.9734 80.9384 54.5535L89.1026 62.337C89.6585 62.8627 89.4651 63.7933 88.7521 64.0592L73.1912 69.8787C72.46 70.1446 71.6986 69.5403 71.8013 68.7607Z" fill="#746253"/>
<path d="M84.8973 51.6771C84.8973 52.2874 84.4018 52.783 83.7914 52.783C83.1811 52.783 82.6855 52.2874 82.6855 51.6771C82.6855 51.0668 83.1811 50.5712 83.7914 50.5712C84.4018 50.5712 84.8973 51.0668 84.8973 51.6771Z" fill="#746253"/>
<path opacity="0.45" d="M111.342 67.6791L70.0322 83.4695C72.4132 78.7982 79.3143 77.6501 80.6136 72.3987C82.1848 66.0293 89.4243 68.8937 89.9319 60.2522C90.4335 51.6106 97.528 54.9645 97.1473 44.7639C96.9479 39.3916 98.8998 37.2403 100.797 36.4064L112.104 65.987C112.358 66.6699 112.019 67.4252 111.342 67.6791Z" fill="#EDE6DE"/>
<path d="M136.359 37.1752C136.359 37.1752 133.845 35.5859 131.826 40.0275C129.808 44.4692 129.832 57.3831 130.201 60.5436C130.569 63.7102 131.506 88.9701 131.506 88.9701C131.506 88.9701 139.598 90.6863 141.791 88.9701C143.985 87.2538 142.19 43.7077 141.791 42.5656C141.392 41.4295 140.407 35.2415 140.407 35.2415L136.359 37.1752Z" fill="white"/>
<path d="M131.827 40.022C131.827 40.022 134.426 37.8647 137.175 37.3147L136.365 34.4624C136.365 34.4624 135.362 34.0757 133.87 34.6014C132.377 35.1272 131.833 38.4206 131.833 38.4206V40.022H131.827Z" fill="url(#paint92_linear_28_972)"/>
<path d="M146.33 26.57C144.849 28.3829 144.179 30.8727 143.586 30.5826C142.994 30.2865 141.689 26.8299 141.689 26.8299C141.689 26.8299 144.136 26.28 143.333 24.4671C142.529 22.6542 140.885 24.0501 140.885 24.0501C140.885 24.0501 141.223 22.1949 140.674 22.0619C140.238 21.9653 134.655 22.6723 130.195 21.6329C128.974 21.3428 127.838 20.9319 126.914 20.3336C124.883 19.0223 124.067 17.3665 124.031 15.7893C123.983 14.0247 124.925 12.3629 126.243 11.4262C128.708 9.67372 135.845 11.1845 135.99 11.2147C135.906 11.0817 133.972 7.8729 135.996 7.33507C138.063 6.78515 141.399 12.6106 144.39 14.762C146.559 16.3211 147.442 18.1219 147.097 19.8321C146.964 20.4847 146.656 21.1192 146.161 21.7235C148.481 22.9019 147.81 24.7571 146.33 26.57Z" fill="#07071C"/>
<path d="M143.587 30.5828C143.303 31.169 142.892 31.6706 142.402 32.0996C141.526 32.861 140.384 33.3807 139.2 33.6889C138.378 33.9004 137.532 34.0092 136.74 34.0273C136.293 34.0394 135.864 34.0213 135.459 33.973C135.03 33.9246 134.637 33.8461 134.293 33.7373C129.277 32.1721 128.794 28.0266 129.283 24.8963C129.38 24.2558 129.519 23.6575 129.67 23.1378C129.845 22.5154 130.038 21.9957 130.196 21.627C134.655 22.6664 140.239 21.9594 140.674 22.0561C141.224 22.183 140.886 24.0443 140.886 24.0443C140.886 24.0443 142.529 22.6544 143.333 24.4612C144.137 26.2741 141.689 26.8241 141.689 26.8241C141.689 26.8241 142.995 30.2867 143.587 30.5828Z" fill="url(#paint93_linear_28_972)"/>
<path d="M130.202 21.6261V21.6203" stroke="black" stroke-width="0.205904" stroke-miterlimit="10"/>
<path d="M142.679 35.634C142.679 36.3592 141.893 37.8034 140.878 38.9033C140.823 38.9637 140.763 39.0241 140.703 39.0846C140.261 39.5378 139.784 39.9064 139.319 40.13C138.793 40.3778 138.231 40.4442 137.705 40.3838C136.617 40.2569 135.675 39.6043 135.463 38.8972C135.191 38.0029 135.548 36.2745 135.518 34.7275C135.512 34.4677 135.493 34.2139 135.463 33.9722C137.602 34.2199 140.582 33.6942 142.401 32.0988C142.37 32.4312 142.389 32.8119 142.425 33.2047C142.503 34.0688 142.679 34.9995 142.679 35.634Z" fill="url(#paint94_linear_28_972)"/>
<path opacity="0.45" d="M142.679 35.634C142.679 36.3592 141.894 37.8034 140.879 38.9033C140.558 38.8549 140.238 38.7703 139.912 38.6434C136.352 37.2354 138.54 35.3983 136.431 34.9753C136.062 34.9028 135.766 34.8182 135.512 34.7275C135.506 34.4677 135.488 34.2139 135.458 33.9722C137.597 34.2199 140.576 33.6942 142.395 32.0988C142.365 32.4312 142.383 32.8119 142.42 33.2047C142.504 34.0688 142.679 34.9995 142.679 35.634Z" fill="url(#paint95_linear_28_972)"/>
<path d="M141.393 41.4295C141.453 39.7193 139.495 37.6284 140.003 35.9847C140.505 34.341 142.583 34.4618 142.426 33.2049C142.426 33.2049 145.309 34.2866 145.75 36.2506C145.762 36.2929 145.768 36.3352 145.774 36.3775C146.094 38.281 143.865 39.9368 141.393 41.4295Z" fill="#746253"/>
<path d="M133.865 34.6018C133.828 34.632 133.792 34.6562 133.762 34.6864C133.714 34.7226 133.671 34.7831 133.629 34.8616C133.617 34.8858 133.599 34.916 133.587 34.9462C133.563 34.9885 133.544 35.0308 133.526 35.0792C133.272 35.6895 133.037 36.874 132.831 38.3726V38.3847C132.251 42.633 131.907 49.4253 132.082 53.1116C132.191 55.4623 132.203 62.5085 132.112 69.8568C132.064 73.9177 131.985 78.0753 131.877 81.5803C131.78 84.7529 131.659 87.3997 131.508 88.9589C131.435 89.7263 131.357 90.2279 131.272 90.4092C130.68 91.6601 127.64 91.4728 125.876 90.6992C125.265 90.4394 124.812 90.101 124.655 89.7324C124.413 89.1401 124.824 85.6896 125.332 81.115C125.658 78.172 126.027 74.7638 126.293 71.3495C126.619 67.1193 126.788 62.8832 126.51 59.5172C123.175 62.6898 121.936 63.0947 120.25 62.6837C120.141 62.6535 120.038 62.6294 119.929 62.5931C119.174 62.3755 118.503 60.7016 118.014 58.6833C117.397 56.1694 117.065 53.1297 117.198 51.7277C117.222 51.48 117.252 51.2866 117.307 51.1536C117.391 50.9421 117.5 50.785 117.645 50.6521C118.527 49.8242 120.491 50.223 122.455 48.114C122.993 47.5399 123.815 46.4219 124.806 45.0502C126.238 43.056 128.033 40.5421 129.84 38.4028C131.157 36.8498 132.481 35.4961 133.671 34.6985C133.677 34.6924 133.677 34.6924 133.683 34.6924C133.75 34.6743 133.81 34.638 133.865 34.6018Z" fill="#746253"/>
<mask id="mask0_28_972" style="mask-type:luminance" maskUnits="userSpaceOnUse" x="117" y="34" width="17" height="58">
<path d="M133.869 34.6044C133.832 34.6346 133.796 34.6588 133.766 34.689C133.718 34.7252 133.675 34.7857 133.633 34.8642C133.621 34.8884 133.603 34.9186 133.591 34.9488C133.566 34.9911 133.548 35.0334 133.53 35.0818C133.276 35.6921 133.041 36.8765 132.835 38.3752V38.3873C132.255 42.6356 131.911 49.4279 132.086 53.1142C132.195 55.4649 132.207 62.5111 132.116 69.8594C132.068 73.9203 131.989 78.0779 131.88 81.5829C131.784 84.7555 131.663 87.4023 131.512 88.9614C131.439 89.7289 131.361 90.2305 131.276 90.4118C130.684 91.6627 127.644 91.4753 125.88 90.7018C125.269 90.442 124.816 90.1036 124.659 89.735C124.417 89.1427 124.828 85.6922 125.336 81.1176C125.662 78.1746 126.031 74.7664 126.297 71.352C126.623 67.1219 126.792 62.8858 126.514 59.5198C123.178 62.6924 121.94 63.0973 120.254 62.6863C120.145 62.6561 120.042 62.632 119.933 62.5957C119.178 62.3781 118.507 60.7042 118.018 58.6858C117.401 56.1719 117.069 53.1323 117.202 51.7303C117.226 51.4826 117.256 51.2892 117.311 51.1562C117.395 50.9447 117.504 50.7876 117.649 50.6547C118.531 49.8268 120.495 50.2256 122.459 48.1166C122.997 47.5425 123.819 46.4245 124.81 45.0528C126.242 43.0586 128.037 40.5447 129.844 38.4054C131.161 36.8524 132.485 35.4987 133.675 34.7011C133.681 34.695 133.681 34.695 133.687 34.695C133.754 34.6769 133.814 34.6406 133.869 34.6044Z" fill="white"/>
</mask>
<g mask="url(#mask0_28_972)">
<path d="M118.697 59.0833C118.697 59.3674 118.467 59.603 118.177 59.603C117.893 59.603 117.657 59.3734 117.657 59.0833C117.657 58.7993 117.887 58.5636 118.177 58.5636C118.467 58.5636 118.697 58.7933 118.697 59.0833Z" fill="black"/>
<path d="M122.577 59.0833C122.577 59.3674 122.347 59.603 122.057 59.603C121.773 59.603 121.537 59.3734 121.537 59.0833C121.537 58.7993 121.767 58.5636 122.057 58.5636C122.347 58.5636 122.577 58.7933 122.577 59.0833Z" fill="black"/>
<path d="M126.461 59.0833C126.461 59.3674 126.232 59.603 125.942 59.603C125.658 59.603 125.422 59.3734 125.422 59.0833C125.422 58.7993 125.652 58.5636 125.942 58.5636C126.232 58.5636 126.461 58.7933 126.461 59.0833Z" fill="black"/>
<path d="M130.34 59.0833C130.34 59.3674 130.111 59.603 129.82 59.603C129.536 59.603 129.301 59.3734 129.301 59.0833C129.301 58.7993 129.53 58.5636 129.82 58.5636C130.111 58.5636 130.34 58.7933 130.34 59.0833Z" fill="black"/>
<path d="M134.228 59.0833C134.228 59.3674 133.998 59.603 133.708 59.603C133.424 59.603 133.188 59.3734 133.188 59.0833C133.188 58.7993 133.418 58.5636 133.708 58.5636C133.992 58.5636 134.228 58.7933 134.228 59.0833Z" fill="black"/>
<path d="M118.697 62.1841C118.697 62.4681 118.467 62.7038 118.177 62.7038C117.893 62.7038 117.657 62.4741 117.657 62.1841C117.657 61.894 117.887 61.6644 118.177 61.6644C118.467 61.6644 118.697 61.9 118.697 62.1841Z" fill="black"/>
<path d="M122.062 62.7038C122.349 62.7038 122.581 62.4711 122.581 62.1841C122.581 61.897 122.349 61.6644 122.062 61.6644C121.775 61.6644 121.542 61.897 121.542 62.1841C121.542 62.4711 121.775 62.7038 122.062 62.7038Z" fill="black"/>
<path d="M126.461 62.1841C126.461 62.4681 126.232 62.7038 125.942 62.7038C125.658 62.7038 125.422 62.4741 125.422 62.1841C125.422 61.894 125.652 61.6644 125.942 61.6644C126.232 61.6644 126.461 61.9 126.461 62.1841Z" fill="black"/>
<path d="M129.828 62.7038C130.115 62.7038 130.348 62.4711 130.348 62.1841C130.348 61.897 130.115 61.6644 129.828 61.6644C129.541 61.6644 129.309 61.897 129.309 62.1841C129.309 62.4711 129.541 62.7038 129.828 62.7038Z" fill="black"/>
<path d="M134.225 62.1841C134.225 62.4681 133.995 62.7038 133.705 62.7038C133.421 62.7038 133.186 62.4741 133.186 62.1841C133.186 61.894 133.415 61.6644 133.705 61.6644C133.989 61.6644 134.225 61.9 134.225 62.1841Z" fill="black"/>
<path d="M118.697 65.2834C118.697 65.5674 118.467 65.8031 118.177 65.8031C117.893 65.8031 117.657 65.5734 117.657 65.2834C117.657 64.9994 117.887 64.7637 118.177 64.7637C118.467 64.7637 118.697 64.9994 118.697 65.2834Z" fill="black"/>
<path d="M122.577 65.2834C122.577 65.5674 122.347 65.8031 122.057 65.8031C121.773 65.8031 121.537 65.5734 121.537 65.2834C121.537 64.9994 121.767 64.7637 122.057 64.7637C122.347 64.7637 122.577 64.9994 122.577 65.2834Z" fill="black"/>
<path d="M126.461 65.2834C126.461 65.5674 126.232 65.8031 125.942 65.8031C125.658 65.8031 125.422 65.5734 125.422 65.2834C125.422 64.9994 125.652 64.7637 125.942 64.7637C126.232 64.7637 126.461 64.9994 126.461 65.2834Z" fill="black"/>
<path d="M130.34 65.2834C130.34 65.5674 130.111 65.8031 129.82 65.8031C129.536 65.8031 129.301 65.5734 129.301 65.2834C129.301 64.9994 129.53 64.7637 129.82 64.7637C130.111 64.7637 130.34 64.9994 130.34 65.2834Z" fill="black"/>
<path d="M134.225 65.2834C134.225 65.5674 133.995 65.8031 133.705 65.8031C133.421 65.8031 133.186 65.5734 133.186 65.2834C133.186 64.9994 133.415 64.7637 133.705 64.7637C133.989 64.7637 134.225 64.9994 134.225 65.2834Z" fill="black"/>
<path d="M118.697 68.384C118.697 68.668 118.467 68.9037 118.177 68.9037C117.893 68.9037 117.657 68.674 117.657 68.384C117.657 68.0999 117.887 67.8643 118.177 67.8643C118.467 67.8703 118.697 68.0999 118.697 68.384Z" fill="black"/>
<path d="M122.577 68.384C122.577 68.668 122.347 68.9037 122.057 68.9037C121.773 68.9037 121.537 68.674 121.537 68.384C121.537 68.0999 121.767 67.8643 122.057 67.8643C122.347 67.8703 122.577 68.0999 122.577 68.384Z" fill="black"/>
<path d="M126.461 68.384C126.461 68.668 126.232 68.9037 125.942 68.9037C125.658 68.9037 125.422 68.674 125.422 68.384C125.422 68.0999 125.652 67.8643 125.942 67.8643C126.232 67.8703 126.461 68.0999 126.461 68.384Z" fill="black"/>
<path d="M130.34 68.384C130.34 68.668 130.111 68.9037 129.82 68.9037C129.536 68.9037 129.301 68.674 129.301 68.384C129.301 68.0999 129.53 67.8643 129.82 67.8643C130.111 67.8703 130.34 68.0999 130.34 68.384Z" fill="black"/>
<path d="M134.228 68.384C134.228 68.668 133.998 68.9037 133.708 68.9037C133.424 68.9037 133.188 68.674 133.188 68.384C133.188 68.0999 133.418 67.8643 133.708 67.8643C133.992 67.8703 134.228 68.0999 134.228 68.384Z" fill="black"/>
<path d="M118.697 71.4902C118.697 71.7742 118.467 72.0099 118.177 72.0099C117.893 72.0099 117.657 71.7803 117.657 71.4902C117.657 71.2062 117.887 70.9705 118.177 70.9705C118.467 70.9705 118.697 71.2002 118.697 71.4902Z" fill="black"/>
<path d="M122.577 71.4902C122.577 71.7742 122.347 72.0099 122.057 72.0099C121.773 72.0099 121.537 71.7803 121.537 71.4902C121.537 71.2062 121.767 70.9705 122.057 70.9705C122.347 70.9705 122.577 71.2002 122.577 71.4902Z" fill="black"/>
<path d="M126.461 71.4902C126.461 71.7742 126.232 72.0099 125.942 72.0099C125.658 72.0099 125.422 71.7803 125.422 71.4902C125.422 71.2062 125.652 70.9705 125.942 70.9705C126.232 70.9705 126.461 71.2002 126.461 71.4902Z" fill="black"/>
<path d="M130.34 71.4902C130.34 71.7742 130.111 72.0099 129.82 72.0099C129.536 72.0099 129.301 71.7803 129.301 71.4902C129.301 71.2062 129.53 70.9705 129.82 70.9705C130.111 70.9705 130.34 71.2002 130.34 71.4902Z" fill="black"/>
<path d="M134.228 71.4902C134.228 71.7742 133.998 72.0099 133.708 72.0099C133.424 72.0099 133.188 71.7803 133.188 71.4902C133.188 71.2062 133.418 70.9705 133.708 70.9705C133.992 70.9705 134.228 71.2002 134.228 71.4902Z" fill="black"/>
<path d="M118.697 74.5911C118.697 74.8751 118.467 75.1108 118.177 75.1108C117.893 75.1108 117.657 74.8812 117.657 74.5911C117.657 74.301 117.887 74.0714 118.177 74.0714C118.467 74.0714 118.697 74.3071 118.697 74.5911Z" fill="black"/>
<path d="M122.062 75.1108C122.349 75.1108 122.581 74.8781 122.581 74.5911C122.581 74.3041 122.349 74.0714 122.062 74.0714C121.775 74.0714 121.542 74.3041 121.542 74.5911C121.542 74.8781 121.775 75.1108 122.062 75.1108Z" fill="black"/>
<path d="M126.461 74.5911C126.461 74.8751 126.232 75.1108 125.942 75.1108C125.658 75.1108 125.422 74.8812 125.422 74.5911C125.422 74.301 125.652 74.0714 125.942 74.0714C126.232 74.0714 126.461 74.3071 126.461 74.5911Z" fill="black"/>
<path d="M129.828 75.1108C130.115 75.1108 130.348 74.8781 130.348 74.5911C130.348 74.3041 130.115 74.0714 129.828 74.0714C129.541 74.0714 129.309 74.3041 129.309 74.5911C129.309 74.8781 129.541 75.1108 129.828 75.1108Z" fill="black"/>
<path d="M134.228 74.5911C134.228 74.8751 133.998 75.1108 133.708 75.1108C133.424 75.1108 133.188 74.8812 133.188 74.5911C133.188 74.301 133.418 74.0714 133.708 74.0714C133.992 74.0714 134.228 74.3071 134.228 74.5911Z" fill="black"/>
<path d="M118.697 77.6901C118.697 77.9742 118.467 78.2098 118.177 78.2098C117.893 78.2098 117.657 77.9802 117.657 77.6901C117.657 77.4061 117.887 77.1704 118.177 77.1704C118.467 77.1765 118.697 77.4061 118.697 77.6901Z" fill="black"/>
<path d="M122.577 77.6901C122.577 77.9742 122.347 78.2098 122.057 78.2098C121.773 78.2098 121.537 77.9802 121.537 77.6901C121.537 77.4061 121.767 77.1704 122.057 77.1704C122.347 77.1765 122.577 77.4061 122.577 77.6901Z" fill="black"/>
<path d="M126.461 77.6901C126.461 77.9742 126.232 78.2098 125.942 78.2098C125.658 78.2098 125.422 77.9802 125.422 77.6901C125.422 77.4061 125.652 77.1704 125.942 77.1704C126.232 77.1765 126.461 77.4061 126.461 77.6901Z" fill="black"/>
<path d="M130.34 77.6901C130.34 77.9742 130.111 78.2098 129.82 78.2098C129.536 78.2098 129.301 77.9802 129.301 77.6901C129.301 77.4061 129.53 77.1704 129.82 77.1704C130.111 77.1765 130.34 77.4061 130.34 77.6901Z" fill="black"/>
<path d="M134.228 77.6901C134.228 77.9742 133.998 78.2098 133.708 78.2098C133.424 78.2098 133.188 77.9802 133.188 77.6901C133.188 77.4061 133.418 77.1704 133.708 77.1704C133.992 77.1765 134.228 77.4061 134.228 77.6901Z" fill="black"/>
</g>
<mask id="mask1_28_972" style="mask-type:luminance" maskUnits="userSpaceOnUse" x="117" y="34" width="17" height="58">
<path d="M133.869 34.6044C133.832 34.6346 133.796 34.6588 133.766 34.689C133.718 34.7252 133.675 34.7857 133.633 34.8642C133.621 34.8884 133.603 34.9186 133.591 34.9488C133.566 34.9911 133.548 35.0334 133.53 35.0818C133.276 35.6921 133.041 36.8765 132.835 38.3752V38.3873C132.255 42.6356 131.911 49.4279 132.086 53.1142C132.195 55.4649 132.207 62.5111 132.116 69.8594C132.068 73.9203 131.989 78.0779 131.88 81.5829C131.784 84.7555 131.663 87.4023 131.512 88.9614C131.439 89.7289 131.361 90.2305 131.276 90.4118C130.684 91.6627 127.644 91.4753 125.88 90.7018C125.269 90.442 124.816 90.1036 124.659 89.735C124.417 89.1427 124.828 85.6922 125.336 81.1176C125.662 78.1746 126.031 74.7664 126.297 71.352C126.623 67.1219 126.792 62.8858 126.514 59.5198C123.178 62.6924 121.94 63.0973 120.254 62.6863C120.145 62.6561 120.042 62.632 119.933 62.5957C119.178 62.3781 118.507 60.7042 118.018 58.6858C117.401 56.1719 117.069 53.1323 117.202 51.7303C117.226 51.4826 117.256 51.2892 117.311 51.1562C117.395 50.9447 117.504 50.7876 117.649 50.6547C118.531 49.8268 120.495 50.2256 122.459 48.1166C122.997 47.5425 123.819 46.4245 124.81 45.0528C126.242 43.0586 128.037 40.5447 129.844 38.4054C131.161 36.8524 132.485 35.4987 133.675 34.7011C133.681 34.695 133.681 34.695 133.687 34.695C133.754 34.6769 133.814 34.6406 133.869 34.6044Z" fill="white"/>
</mask>
<g mask="url(#mask1_28_972)">
<path d="M118.834 35.2248C118.834 35.5088 118.605 35.7445 118.315 35.7445C118.031 35.7445 117.795 35.5149 117.795 35.2248C117.795 34.9408 118.025 34.7051 118.315 34.7051C118.605 34.7112 118.834 34.9408 118.834 35.2248Z" fill="black"/>
<path d="M122.721 35.2248C122.721 35.5088 122.491 35.7445 122.201 35.7445C121.917 35.7445 121.682 35.5149 121.682 35.2248C121.682 34.9408 121.911 34.7051 122.201 34.7051C122.485 34.7112 122.721 34.9408 122.721 35.2248Z" fill="black"/>
<path d="M126.601 35.2248C126.601 35.5088 126.371 35.7445 126.081 35.7445C125.797 35.7445 125.562 35.5149 125.562 35.2248C125.562 34.9408 125.791 34.7051 126.081 34.7051C126.371 34.7112 126.601 34.9408 126.601 35.2248Z" fill="black"/>
<path d="M130.486 35.2248C130.486 35.5088 130.256 35.7445 129.966 35.7445C129.682 35.7445 129.446 35.5149 129.446 35.2248C129.446 34.9408 129.676 34.7051 129.966 34.7051C130.25 34.7112 130.486 34.9408 130.486 35.2248Z" fill="black"/>
<path d="M118.834 38.3243C118.834 38.6083 118.605 38.844 118.315 38.844C118.031 38.844 117.795 38.6144 117.795 38.3243C117.795 38.0403 118.025 37.8046 118.315 37.8046C118.605 37.8106 118.834 38.0403 118.834 38.3243Z" fill="black"/>
<path d="M122.721 38.3243C122.721 38.6083 122.491 38.844 122.201 38.844C121.917 38.844 121.682 38.6144 121.682 38.3243C121.682 38.0403 121.911 37.8046 122.201 37.8046C122.485 37.8106 122.721 38.0403 122.721 38.3243Z" fill="black"/>
<path d="M126.601 38.3243C126.601 38.6083 126.371 38.844 126.081 38.844C125.797 38.844 125.562 38.6144 125.562 38.3243C125.562 38.0403 125.791 37.8046 126.081 37.8046C126.371 37.8106 126.601 38.0403 126.601 38.3243Z" fill="black"/>
<path d="M130.486 38.3243C130.486 38.6083 130.256 38.844 129.966 38.844C129.682 38.844 129.446 38.6144 129.446 38.3243C129.446 38.0403 129.676 37.8046 129.966 37.8046C130.25 37.8106 130.486 38.0403 130.486 38.3243Z" fill="black"/>
<path d="M118.837 41.4317C118.837 41.7157 118.608 41.9514 118.318 41.9514C118.034 41.9514 117.798 41.7217 117.798 41.4317C117.798 41.1476 118.027 40.912 118.318 40.912C118.608 40.912 118.837 41.1416 118.837 41.4317Z" fill="black"/>
<path d="M122.722 41.4317C122.722 41.7157 122.492 41.9514 122.202 41.9514C121.918 41.9514 121.683 41.7217 121.683 41.4317C121.683 41.1476 121.912 40.912 122.202 40.912C122.486 40.912 122.722 41.1416 122.722 41.4317Z" fill="black"/>
<path d="M126.604 41.4317C126.604 41.7157 126.374 41.9514 126.084 41.9514C125.8 41.9514 125.564 41.7217 125.564 41.4317C125.564 41.1476 125.794 40.912 126.084 40.912C126.374 40.912 126.604 41.1416 126.604 41.4317Z" fill="black"/>
<path d="M129.969 41.9514C130.256 41.9514 130.489 41.7187 130.489 41.4317C130.489 41.1446 130.256 40.912 129.969 40.912C129.682 40.912 129.449 41.1446 129.449 41.4317C129.449 41.7187 129.682 41.9514 129.969 41.9514Z" fill="black"/>
<path d="M118.834 44.5318C118.834 44.8158 118.605 45.0515 118.315 45.0515C118.031 45.0515 117.795 44.8218 117.795 44.5318C117.795 44.2477 118.025 44.0121 118.315 44.0121C118.605 44.0121 118.834 44.2477 118.834 44.5318Z" fill="black"/>
<path d="M122.721 44.5318C122.721 44.8158 122.491 45.0515 122.201 45.0515C121.917 45.0515 121.682 44.8218 121.682 44.5318C121.682 44.2477 121.911 44.0121 122.201 44.0121C122.485 44.0121 122.721 44.2477 122.721 44.5318Z" fill="black"/>
<path d="M126.601 44.5318C126.601 44.8158 126.371 45.0515 126.081 45.0515C125.797 45.0515 125.562 44.8218 125.562 44.5318C125.562 44.2477 125.791 44.0121 126.081 44.0121C126.371 44.0121 126.601 44.2477 126.601 44.5318Z" fill="black"/>
<path d="M130.486 44.5318C130.486 44.8158 130.256 45.0515 129.966 45.0515C129.682 45.0515 129.446 44.8218 129.446 44.5318C129.446 44.2477 129.676 44.0121 129.966 44.0121C130.25 44.0121 130.486 44.2477 130.486 44.5318Z" fill="black"/>
<path d="M118.834 47.6325C118.834 47.9165 118.605 48.1522 118.315 48.1522C118.031 48.1522 117.795 47.9226 117.795 47.6325C117.795 47.3485 118.025 47.1128 118.315 47.1128C118.605 47.1188 118.834 47.3485 118.834 47.6325Z" fill="black"/>
<path d="M122.721 47.6325C122.721 47.9165 122.491 48.1522 122.201 48.1522C121.917 48.1522 121.682 47.9226 121.682 47.6325C121.682 47.3485 121.911 47.1128 122.201 47.1128C122.485 47.1188 122.721 47.3485 122.721 47.6325Z" fill="black"/>
<path d="M126.601 47.6325C126.601 47.9165 126.371 48.1522 126.081 48.1522C125.797 48.1522 125.562 47.9226 125.562 47.6325C125.562 47.3485 125.791 47.1128 126.081 47.1128C126.371 47.1188 126.601 47.3485 126.601 47.6325Z" fill="black"/>
<path d="M130.486 47.6325C130.486 47.9165 130.256 48.1522 129.966 48.1522C129.682 48.1522 129.446 47.9226 129.446 47.6325C129.446 47.3485 129.676 47.1128 129.966 47.1128C130.25 47.1188 130.486 47.3485 130.486 47.6325Z" fill="black"/>
<path d="M118.834 50.7304C118.834 51.0144 118.605 51.2501 118.315 51.2501C118.031 51.2501 117.795 51.0205 117.795 50.7304C117.795 50.4464 118.025 50.2107 118.315 50.2107C118.605 50.2168 118.834 50.4464 118.834 50.7304Z" fill="black"/>
<path d="M122.721 50.7304C122.721 51.0144 122.491 51.2501 122.201 51.2501C121.917 51.2501 121.682 51.0205 121.682 50.7304C121.682 50.4464 121.911 50.2107 122.201 50.2107C122.485 50.2168 122.721 50.4464 122.721 50.7304Z" fill="black"/>
<path d="M126.601 50.7304C126.601 51.0144 126.371 51.2501 126.081 51.2501C125.797 51.2501 125.562 51.0205 125.562 50.7304C125.562 50.4464 125.791 50.2107 126.081 50.2107C126.371 50.2168 126.601 50.4464 126.601 50.7304Z" fill="black"/>
<path d="M130.486 50.7304C130.486 51.0144 130.256 51.2501 129.966 51.2501C129.682 51.2501 129.446 51.0205 129.446 50.7304C129.446 50.4464 129.676 50.2107 129.966 50.2107C130.25 50.2168 130.486 50.4464 130.486 50.7304Z" fill="black"/>
</g>
<path d="M158.5 88.058C158.131 88.7409 157.14 89.4842 155.811 90.1791C151.381 92.4936 143.145 94.3065 141.199 91.7745C140.884 91.3636 140.582 90.4511 140.292 89.1518C138.244 79.9966 136.866 51.6065 137.234 44.5119C137.325 42.8259 137.494 41.4723 137.712 40.3846C138.534 36.2511 140.002 35.9852 140.002 35.9852C139.712 36.9279 140.226 38.0096 140.709 39.0853C141.078 39.889 141.422 40.6928 141.392 41.43C143.87 39.9434 146.1 38.2876 145.773 36.378C147.49 36.9038 153.152 39.4358 155.883 43.6659C156.518 44.6509 157.044 45.8354 157.448 47.1709C159.219 52.9903 158.627 61.5593 154.445 68.11C154.415 68.1523 154.391 68.1946 154.36 68.2369C154.203 68.4907 154.028 68.7385 153.859 68.9862C153.52 74.8903 160.101 85.103 158.5 88.058Z" fill="#746253"/>
<path d="M120.255 62.6947C115.741 63.6737 110.526 61.2202 109.486 59.7155C109.239 59.3589 108.653 58.0114 107.891 56.1259C105.142 49.3094 100.053 35.4104 100.053 35.4104C100.053 35.4104 96.4456 32.3043 98.4096 32.0928C99.8901 31.9357 103.178 34.4073 105.432 37.5919C106.163 38.6253 106.791 39.7312 107.208 40.8491C108.918 45.4056 112.333 50.663 117.651 50.6691C117.506 50.802 117.397 50.9591 117.312 51.1706C117.258 51.3036 117.222 51.497 117.203 51.7447C117.07 53.1467 117.403 56.1864 118.019 58.7003C118.509 60.7126 119.179 62.3865 119.935 62.6101C120.044 62.6403 120.146 62.6645 120.255 62.6947Z" fill="url(#paint96_linear_28_972)"/>
<path d="M162.889 167.899C162.079 169.222 160.792 170.304 159.299 171.156C156.278 172.884 152.428 173.628 150.054 173.392C148.984 173.283 148.21 172.981 147.957 172.473C146.869 170.298 139.255 116.418 139.255 116.418C139.255 116.418 128.28 170.769 127.265 171.615C127.175 171.688 127.017 171.766 126.8 171.845C126.486 171.96 126.039 172.075 125.513 172.171C123.325 172.582 119.639 172.739 117.149 171.591C115.85 170.993 114.877 170.038 114.605 168.582C113.632 163.391 123.863 103.256 125.869 90.7172C126.631 91.0496 127.628 91.2732 128.564 91.3215C129.803 91.388 130.927 91.1402 131.266 90.4271C131.35 90.2458 131.429 89.7443 131.501 88.9768C133.248 89.4602 136.233 89.9074 140.282 89.1581C140.572 90.4574 140.874 91.3698 141.188 91.7808C143.134 94.3128 151.371 92.4999 155.8 90.1854C156.532 99.8905 159.088 120.987 160.955 138.856C162.436 152.864 163.481 164.889 162.889 167.899Z" fill="#DBCAB8"/>
<path d="M128.854 190.492C128.854 190.492 99.1044 191.634 97.3338 190.492C95.5632 189.35 95.5632 184.225 99.2314 183.023C102.906 181.82 112.079 178.72 116.768 173.91C116.768 173.91 116.792 173.946 116.835 174.019C117.119 174.496 118.424 176.412 121.077 177.077C124.117 177.838 125.192 176.382 125.76 176.823C126.322 177.264 128.854 190.492 128.854 190.492Z" fill="#746253"/>
<path d="M168.375 190.494H147.786C147.786 190.494 150.487 178.613 150.826 177.936C150.862 177.852 150.935 177.797 151.019 177.767C151.63 177.507 153.261 178.311 154.373 177.936C155.642 177.513 156.482 175.32 158.343 175.235C158.754 175.217 159.141 175.44 159.504 175.821C160.791 177.157 161.794 180.432 162.652 181.816C163.734 183.592 169.813 185.581 168.375 190.494Z" fill="#746253"/>
<path d="M126.805 171.838L125.754 176.823C125.18 176.382 124.104 177.839 121.07 177.077C118.417 176.413 117.112 174.497 116.828 174.02L117.154 171.584C120.248 173.01 125.18 172.418 126.805 171.838Z" fill="url(#paint97_linear_28_972)"/>
<path d="M159.494 175.827C159.131 175.446 158.745 175.222 158.334 175.24C156.478 175.325 155.632 177.519 154.363 177.942C153.251 178.316 151.62 177.513 151.009 177.772C150.774 176.092 150.351 174.437 150.055 173.391C152.43 173.627 156.279 172.884 159.301 171.155C159.319 172.829 159.415 174.612 159.494 175.827Z" fill="url(#paint98_linear_28_972)"/>
<path d="M150.948 71.6808C144.682 81.4946 131.641 83.0719 122.842 80.5399C118.89 79.4038 116.376 78.1045 114.793 77.0107C114.793 77.0107 114.787 77.0107 114.787 77.0047C112.853 75.6631 112.333 74.6479 112.333 74.6479C112.333 74.6479 105.058 74.8413 102.967 70.7864C99.4859 70.0914 99.6128 68.5686 99.8666 68.2544C100.12 67.9401 108.665 68.2544 111.638 66.9914C110.122 65.0274 111.324 63.0694 112.46 63.1903C113.602 63.3172 114.171 67.7467 115.307 69.2031C116.449 70.6595 121.767 72.1823 128.221 71.1006C130.855 70.6655 133.544 69.2635 135.817 67.7649C139.116 65.5894 141.515 63.1843 141.515 63.1843C141.515 63.1843 141.733 63.6375 142.138 64.3264C142.941 65.6921 144.482 68.0006 146.579 69.6745C147.854 70.7018 149.317 71.4813 150.948 71.6808Z" fill="url(#paint99_linear_28_972)"/>
<path d="M133.76 34.6857C133.711 34.722 133.669 34.7824 133.627 34.8609C133.608 34.8851 133.596 34.9153 133.584 34.9456C133.56 34.9879 133.542 35.0301 133.524 35.0785C133.246 35.7976 133.107 37.1875 132.829 38.3719V38.384C132.811 38.4565 132.793 38.5351 132.774 38.6076C132.394 40.1244 129.421 41.895 128.913 41.4237C128.417 40.9644 129.324 40.3843 129.838 38.4203C129.862 38.3538 129.874 38.2934 129.892 38.2269C130.351 36.3052 133.149 34.9576 133.669 34.7159C133.675 34.7099 133.675 34.7099 133.681 34.7099C133.735 34.6978 133.76 34.6857 133.76 34.6857Z" fill="#746253"/>
<path opacity="0.45" d="M142.143 64.3453C141.279 65.004 140.312 65.7352 139.019 66.4966C137.817 67.1976 136.705 67.5783 135.816 67.7838C139.116 65.6083 141.515 63.2032 141.515 63.2032C141.515 63.2032 141.733 63.6503 142.143 64.3453Z" fill="url(#paint100_linear_28_972)"/>
<path opacity="0.45" d="M141.514 63.2025C144.426 61.305 146.958 50.9895 147.146 50.8626C147.962 52.2525 147.273 53.0804 147.146 54.3434C147.019 55.6064 147.968 56.1805 146.892 57.7638C145.816 59.3471 145.309 58.8394 144.928 60.8639C144.547 62.8883 143.006 63.692 142.136 64.3507" fill="url(#paint101_linear_28_972)"/>
<path d="M105.666 179.627C105.666 179.627 107.237 183.887 108.754 183.972C110.271 184.056 107.231 179.584 108.113 178.358C109.002 177.131 110.265 182.413 112.205 182.455C114.144 182.497 110.561 177.391 111.02 176.249C111.485 175.107 112.579 176.545 114.543 179.669C116.507 182.793 117.226 178.237 113.214 173.91" stroke="url(#paint102_linear_28_972)" stroke-width="0.205904" stroke-miterlimit="10"/>
<path d="M162.34 179.247C162.34 179.247 156.768 179.543 156.055 181.356C155.336 183.169 162.551 179.966 164.666 181.821C166.775 183.677 157.578 182.329 157.62 184.184C157.662 186.039 165.742 182.426 166.564 184.184C167.392 185.943 159.56 185.242 159.01 186.42" stroke="#746253" stroke-width="0.205904" stroke-miterlimit="10"/>
<path opacity="0.45" d="M124.811 45.0748C124.267 48.1266 122.085 52.0968 118.792 51.8068C118.212 51.7584 117.686 51.7403 117.202 51.7463C114.06 51.7766 112.888 52.6649 111.951 50.4169C110.881 47.8244 109.044 47.3168 107.08 43.4553C105.884 41.0925 105.527 38.9291 105.431 37.5996C106.162 38.633 106.79 39.7388 107.207 40.8568C108.917 45.4132 112.332 50.6707 117.65 50.6767C118.532 49.8488 120.496 50.2477 122.46 48.1387C123.004 47.5646 123.82 46.4466 124.811 45.0748Z" fill="url(#paint103_linear_28_972)"/>
<path opacity="0.45" d="M143.588 30.5822C143.304 31.1684 142.893 31.67 142.403 32.099C141.527 32.8604 140.385 33.3801 139.201 33.6883C139.491 32.2501 142.289 30.9146 141.298 29.4038C140.252 27.8205 140.76 26.2373 139.334 26.0197C137.907 25.8022 136.711 25.6692 135.031 24.1222C133.351 22.5752 132.716 23.9651 130.601 23.4575C130.221 23.3668 129.918 23.2581 129.677 23.1432C129.852 22.5208 130.045 22.0011 130.202 21.6325C134.662 22.6719 140.246 21.9648 140.681 22.0615C141.231 22.1884 140.893 24.0497 140.893 24.0497C140.893 24.0497 142.536 22.6598 143.34 24.4667C144.144 26.2796 141.696 26.8295 141.696 26.8295C141.696 26.8295 142.996 30.2861 143.588 30.5822Z" fill="url(#paint104_linear_28_972)"/>
<path opacity="0.45" d="M136.74 34.0211C136.293 34.0332 135.864 34.0151 135.459 33.9667C135.03 33.9184 134.637 33.8398 134.293 33.7311C129.277 32.1659 128.794 28.0204 129.283 24.8901C129.458 25.1379 129.646 25.6274 129.67 26.5459C129.718 28.3346 130.31 30.6612 132.208 31.9242C133.888 33.0542 136.214 32.9515 136.74 34.0211Z" fill="url(#paint105_linear_28_972)"/>
<defs>
<linearGradient id="paint0_linear_28_972" x1="54.2014" y1="119.401" x2="64.4188" y2="154.849" gradientUnits="userSpaceOnUse">
<stop/>
<stop offset="1" stop-opacity="0"/>
</linearGradient>
<linearGradient id="paint1_linear_28_972" x1="55.5398" y1="97.8687" x2="39.2447" y2="55.5643" gradientUnits="userSpaceOnUse">
<stop stop-color="#A9C6FF"/>
<stop offset="1" stop-color="#DCE9FF"/>
</linearGradient>
<linearGradient id="paint2_linear_28_972" x1="18.9295" y1="81.3864" x2="76.1821" y2="71.486" gradientUnits="userSpaceOnUse">
<stop stop-color="#A9C6FF"/>
<stop offset="1" stop-color="#DCE9FF"/>
</linearGradient>
<linearGradient id="paint3_linear_28_972" x1="19.0956" y1="81.7844" x2="76.108" y2="71.9255" gradientUnits="userSpaceOnUse">
<stop stop-color="#A9C6FF"/>
<stop offset="1" stop-color="#DCE9FF"/>
</linearGradient>
<linearGradient id="paint4_linear_28_972" x1="34.4982" y1="106.282" x2="68.8033" y2="100.349" gradientUnits="userSpaceOnUse">
<stop stop-color="#A9C6FF"/>
<stop offset="1" stop-color="#DCE9FF"/>
</linearGradient>
<linearGradient id="paint5_linear_28_972" x1="34.9616" y1="108.958" x2="60.0355" y2="104.622" gradientUnits="userSpaceOnUse">
<stop stop-color="#A9C6FF"/>
<stop offset="1" stop-color="#DCE9FF"/>
</linearGradient>
<linearGradient id="paint6_linear_28_972" x1="35.4243" y1="111.635" x2="69.7293" y2="105.703" gradientUnits="userSpaceOnUse">
<stop stop-color="#A9C6FF"/>
<stop offset="1" stop-color="#DCE9FF"/>
</linearGradient>
<linearGradient id="paint7_linear_28_972" x1="35.8886" y1="114.313" x2="50.2967" y2="111.821" gradientUnits="userSpaceOnUse">
<stop stop-color="#A9C6FF"/>
<stop offset="1" stop-color="#DCE9FF"/>
</linearGradient>
<linearGradient id="paint8_linear_28_972" x1="0.95367" y1="16.2344" x2="39.3696" y2="68.0045" gradientUnits="userSpaceOnUse">
<stop stop-color="#A9C6FF"/>
<stop offset="1" stop-color="#DCE9FF"/>
</linearGradient>
<linearGradient id="paint9_linear_28_972" x1="3.73823" y1="14.1681" x2="42.1541" y2="65.9382" gradientUnits="userSpaceOnUse">
<stop stop-color="#A9C6FF"/>
<stop offset="1" stop-color="#DCE9FF"/>
</linearGradient>
<linearGradient id="paint10_linear_28_972" x1="6.52192" y1="12.102" x2="44.9376" y2="63.872" gradientUnits="userSpaceOnUse">
<stop stop-color="#A9C6FF"/>
<stop offset="1" stop-color="#DCE9FF"/>
</linearGradient>
<linearGradient id="paint11_linear_28_972" x1="9.30647" y1="10.0369" x2="47.7224" y2="61.8071" gradientUnits="userSpaceOnUse">
<stop stop-color="#A9C6FF"/>
<stop offset="1" stop-color="#DCE9FF"/>
</linearGradient>
<linearGradient id="paint12_linear_28_972" x1="12.0881" y1="7.97255" x2="50.504" y2="59.7428" gradientUnits="userSpaceOnUse">
<stop stop-color="#A9C6FF"/>
<stop offset="1" stop-color="#DCE9FF"/>
</linearGradient>
<linearGradient id="paint13_linear_28_972" x1="14.8728" y1="5.90621" x2="53.2886" y2="57.6762" gradientUnits="userSpaceOnUse">
<stop stop-color="#A9C6FF"/>
<stop offset="1" stop-color="#DCE9FF"/>
</linearGradient>
<linearGradient id="paint14_linear_28_972" x1="-0.165676" y1="17.0674" x2="38.2508" y2="68.8383" gradientUnits="userSpaceOnUse">
<stop stop-color="#A9C6FF"/>
<stop offset="1" stop-color="#DCE9FF"/>
</linearGradient>
<linearGradient id="paint15_linear_28_972" x1="2.61882" y1="15.0012" x2="41.0358" y2="66.7728" gradientUnits="userSpaceOnUse">
<stop stop-color="#A9C6FF"/>
<stop offset="1" stop-color="#DCE9FF"/>
</linearGradient>
<linearGradient id="paint16_linear_28_972" x1="5.40241" y1="12.9357" x2="43.8194" y2="64.7073" gradientUnits="userSpaceOnUse">
<stop stop-color="#A9C6FF"/>
<stop offset="1" stop-color="#DCE9FF"/>
</linearGradient>
<linearGradient id="paint17_linear_28_972" x1="8.18413" y1="10.871" x2="46.6008" y2="62.6423" gradientUnits="userSpaceOnUse">
<stop stop-color="#A9C6FF"/>
<stop offset="1" stop-color="#DCE9FF"/>
</linearGradient>
<linearGradient id="paint18_linear_28_972" x1="10.9686" y1="8.80528" x2="49.3858" y2="60.5772" gradientUnits="userSpaceOnUse">
<stop stop-color="#A9C6FF"/>
<stop offset="1" stop-color="#DCE9FF"/>
</linearGradient>
<linearGradient id="paint19_linear_28_972" x1="13.7531" y1="6.73914" x2="52.1704" y2="58.5113" gradientUnits="userSpaceOnUse">
<stop stop-color="#A9C6FF"/>
<stop offset="1" stop-color="#DCE9FF"/>
</linearGradient>
<linearGradient id="paint20_linear_28_972" x1="-1.29081" y1="17.8979" x2="37.1259" y2="69.6691" gradientUnits="userSpaceOnUse">
<stop stop-color="#A9C6FF"/>
<stop offset="1" stop-color="#DCE9FF"/>
</linearGradient>
<linearGradient id="paint21_linear_28_972" x1="1.4926" y1="15.8317" x2="39.9094" y2="67.6033" gradientUnits="userSpaceOnUse">
<stop stop-color="#A9C6FF"/>
<stop offset="1" stop-color="#DCE9FF"/>
</linearGradient>
<linearGradient id="paint22_linear_28_972" x1="4.27718" y1="13.7653" x2="42.694" y2="65.5369" gradientUnits="userSpaceOnUse">
<stop stop-color="#A9C6FF"/>
<stop offset="1" stop-color="#DCE9FF"/>
</linearGradient>
<linearGradient id="paint23_linear_28_972" x1="7.06076" y1="11.7013" x2="45.4777" y2="63.473" gradientUnits="userSpaceOnUse">
<stop stop-color="#A9C6FF"/>
<stop offset="1" stop-color="#DCE9FF"/>
</linearGradient>
<linearGradient id="paint24_linear_28_972" x1="9.84548" y1="9.63516" x2="48.262" y2="61.4063" gradientUnits="userSpaceOnUse">
<stop stop-color="#A9C6FF"/>
<stop offset="1" stop-color="#DCE9FF"/>
</linearGradient>
<linearGradient id="paint25_linear_28_972" x1="12.627" y1="7.56965" x2="51.044" y2="59.3412" gradientUnits="userSpaceOnUse">
<stop stop-color="#A9C6FF"/>
<stop offset="1" stop-color="#DCE9FF"/>
</linearGradient>
<linearGradient id="paint26_linear_28_972" x1="-2.40984" y1="18.7313" x2="36.0055" y2="70.5009" gradientUnits="userSpaceOnUse">
<stop stop-color="#A9C6FF"/>
<stop offset="1" stop-color="#DCE9FF"/>
</linearGradient>
<linearGradient id="paint27_linear_28_972" x1="0.374815" y1="16.666" x2="38.7904" y2="68.4357" gradientUnits="userSpaceOnUse">
<stop stop-color="#A9C6FF"/>
<stop offset="1" stop-color="#DCE9FF"/>
</linearGradient>
<linearGradient id="paint28_linear_28_972" x1="3.15634" y1="14.5998" x2="41.5722" y2="66.37" gradientUnits="userSpaceOnUse">
<stop stop-color="#A9C6FF"/>
<stop offset="1" stop-color="#DCE9FF"/>
</linearGradient>
<linearGradient id="paint29_linear_28_972" x1="5.93998" y1="12.5345" x2="44.3557" y2="64.3045" gradientUnits="userSpaceOnUse">
<stop stop-color="#A9C6FF"/>
<stop offset="1" stop-color="#DCE9FF"/>
</linearGradient>
<linearGradient id="paint30_linear_28_972" x1="8.72465" y1="10.4683" x2="47.1405" y2="62.2383" gradientUnits="userSpaceOnUse">
<stop stop-color="#A9C6FF"/>
<stop offset="1" stop-color="#DCE9FF"/>
</linearGradient>
<linearGradient id="paint31_linear_28_972" x1="11.5094" y1="8.40334" x2="49.9246" y2="60.1728" gradientUnits="userSpaceOnUse">
<stop stop-color="#A9C6FF"/>
<stop offset="1" stop-color="#DCE9FF"/>
</linearGradient>
<linearGradient id="paint32_linear_28_972" x1="-3.53392" y1="19.565" x2="34.8817" y2="71.3348" gradientUnits="userSpaceOnUse">
<stop stop-color="#A9C6FF"/>
<stop offset="1" stop-color="#DCE9FF"/>
</linearGradient>
<linearGradient id="paint33_linear_28_972" x1="-0.749316" y1="17.4988" x2="37.6661" y2="69.2684" gradientUnits="userSpaceOnUse">
<stop stop-color="#A9C6FF"/>
<stop offset="1" stop-color="#DCE9FF"/>
</linearGradient>
<linearGradient id="paint34_linear_28_972" x1="2.03437" y1="15.4323" x2="40.45" y2="67.2019" gradientUnits="userSpaceOnUse">
<stop stop-color="#A9C6FF"/>
<stop offset="1" stop-color="#DCE9FF"/>
</linearGradient>
<linearGradient id="paint35_linear_28_972" x1="4.81765" y1="13.367" x2="43.2336" y2="65.1373" gradientUnits="userSpaceOnUse">
<stop stop-color="#A9C6FF"/>
<stop offset="1" stop-color="#DCE9FF"/>
</linearGradient>
<linearGradient id="paint36_linear_28_972" x1="7.59936" y1="11.3019" x2="46.0151" y2="63.0721" gradientUnits="userSpaceOnUse">
<stop stop-color="#A9C6FF"/>
<stop offset="1" stop-color="#DCE9FF"/>
</linearGradient>
<linearGradient id="paint37_linear_28_972" x1="10.384" y1="9.23634" x2="48.7999" y2="61.0064" gradientUnits="userSpaceOnUse">
<stop stop-color="#A9C6FF"/>
<stop offset="1" stop-color="#DCE9FF"/>
</linearGradient>
<linearGradient id="paint38_linear_28_972" x1="-4.65263" y1="20.3962" x2="33.7639" y2="72.1672" gradientUnits="userSpaceOnUse">
<stop stop-color="#A9C6FF"/>
<stop offset="1" stop-color="#DCE9FF"/>
</linearGradient>
<linearGradient id="paint39_linear_28_972" x1="-1.86803" y1="18.3301" x2="36.5486" y2="70.1013" gradientUnits="userSpaceOnUse">
<stop stop-color="#A9C6FF"/>
<stop offset="1" stop-color="#DCE9FF"/>
</linearGradient>
<linearGradient id="paint40_linear_28_972" x1="0.91552" y1="16.2646" x2="39.332" y2="68.0358" gradientUnits="userSpaceOnUse">
<stop stop-color="#A9C6FF"/>
<stop offset="1" stop-color="#DCE9FF"/>
</linearGradient>
<linearGradient id="paint41_linear_28_972" x1="3.6971" y1="14.1985" x2="42.1138" y2="65.9697" gradientUnits="userSpaceOnUse">
<stop stop-color="#A9C6FF"/>
<stop offset="1" stop-color="#DCE9FF"/>
</linearGradient>
<linearGradient id="paint42_linear_28_972" x1="6.48166" y1="12.1341" x2="44.8987" y2="63.9057" gradientUnits="userSpaceOnUse">
<stop stop-color="#A9C6FF"/>
<stop offset="1" stop-color="#DCE9FF"/>
</linearGradient>
<linearGradient id="paint43_linear_28_972" x1="9.26615" y1="10.0679" x2="47.6829" y2="61.8395" gradientUnits="userSpaceOnUse">
<stop stop-color="#A9C6FF"/>
<stop offset="1" stop-color="#DCE9FF"/>
</linearGradient>
<linearGradient id="paint44_linear_28_972" x1="-5.77685" y1="21.2272" x2="32.6397" y2="72.9984" gradientUnits="userSpaceOnUse">
<stop stop-color="#A9C6FF"/>
<stop offset="1" stop-color="#DCE9FF"/>
</linearGradient>
<linearGradient id="paint45_linear_28_972" x1="-2.99233" y1="19.1607" x2="35.4247" y2="70.9323" gradientUnits="userSpaceOnUse">
<stop stop-color="#A9C6FF"/>
<stop offset="1" stop-color="#DCE9FF"/>
</linearGradient>
<linearGradient id="paint46_linear_28_972" x1="-0.208736" y1="17.0957" x2="38.2083" y2="68.8673" gradientUnits="userSpaceOnUse">
<stop stop-color="#A9C6FF"/>
<stop offset="1" stop-color="#DCE9FF"/>
</linearGradient>
<linearGradient id="paint47_linear_28_972" x1="2.57291" y1="15.0315" x2="40.9898" y2="66.803" gradientUnits="userSpaceOnUse">
<stop stop-color="#A9C6FF"/>
<stop offset="1" stop-color="#DCE9FF"/>
</linearGradient>
<linearGradient id="paint48_linear_28_972" x1="5.35744" y1="12.9641" x2="43.7745" y2="64.7358" gradientUnits="userSpaceOnUse">
<stop stop-color="#A9C6FF"/>
<stop offset="1" stop-color="#DCE9FF"/>
</linearGradient>
<linearGradient id="paint49_linear_28_972" x1="8.14208" y1="10.8989" x2="46.559" y2="62.6705" gradientUnits="userSpaceOnUse">
<stop stop-color="#A9C6FF"/>
<stop offset="1" stop-color="#DCE9FF"/>
</linearGradient>
<linearGradient id="paint50_linear_28_972" x1="54.3908" y1="89.5402" x2="92.8068" y2="141.31" gradientUnits="userSpaceOnUse">
<stop stop-color="#A9C6FF"/>
<stop offset="1" stop-color="#DCE9FF"/>
</linearGradient>
<linearGradient id="paint51_linear_28_972" x1="57.1753" y1="87.4739" x2="95.5913" y2="139.244" gradientUnits="userSpaceOnUse">
<stop stop-color="#A9C6FF"/>
<stop offset="1" stop-color="#DCE9FF"/>
</linearGradient>
<linearGradient id="paint52_linear_28_972" x1="59.959" y1="85.4087" x2="98.3749" y2="137.179" gradientUnits="userSpaceOnUse">
<stop stop-color="#A9C6FF"/>
<stop offset="1" stop-color="#DCE9FF"/>
</linearGradient>
<linearGradient id="paint53_linear_28_972" x1="62.7407" y1="83.3447" x2="101.157" y2="135.115" gradientUnits="userSpaceOnUse">
<stop stop-color="#A9C6FF"/>
<stop offset="1" stop-color="#DCE9FF"/>
</linearGradient>
<linearGradient id="paint54_linear_28_972" x1="65.5252" y1="81.2786" x2="103.941" y2="133.049" gradientUnits="userSpaceOnUse">
<stop stop-color="#A9C6FF"/>
<stop offset="1" stop-color="#DCE9FF"/>
</linearGradient>
<linearGradient id="paint55_linear_28_972" x1="68.31" y1="79.2123" x2="106.726" y2="130.982" gradientUnits="userSpaceOnUse">
<stop stop-color="#A9C6FF"/>
<stop offset="1" stop-color="#DCE9FF"/>
</linearGradient>
<linearGradient id="paint56_linear_28_972" x1="53.2706" y1="90.3739" x2="91.6865" y2="142.144" gradientUnits="userSpaceOnUse">
<stop stop-color="#A9C6FF"/>
<stop offset="1" stop-color="#DCE9FF"/>
</linearGradient>
<linearGradient id="paint57_linear_28_972" x1="56.0552" y1="88.3078" x2="94.4711" y2="140.078" gradientUnits="userSpaceOnUse">
<stop stop-color="#A9C6FF"/>
<stop offset="1" stop-color="#DCE9FF"/>
</linearGradient>
<linearGradient id="paint58_linear_28_972" x1="58.8387" y1="86.2411" x2="97.2545" y2="138.011" gradientUnits="userSpaceOnUse">
<stop stop-color="#A9C6FF"/>
<stop offset="1" stop-color="#DCE9FF"/>
</linearGradient>
<linearGradient id="paint59_linear_28_972" x1="61.6223" y1="84.1763" x2="100.038" y2="135.947" gradientUnits="userSpaceOnUse">
<stop stop-color="#A9C6FF"/>
<stop offset="1" stop-color="#DCE9FF"/>
</linearGradient>
<linearGradient id="paint60_linear_28_972" x1="64.404" y1="82.1109" x2="102.82" y2="133.881" gradientUnits="userSpaceOnUse">
<stop stop-color="#A9C6FF"/>
<stop offset="1" stop-color="#DCE9FF"/>
</linearGradient>
<linearGradient id="paint61_linear_28_972" x1="67.1885" y1="80.0448" x2="105.604" y2="131.815" gradientUnits="userSpaceOnUse">
<stop stop-color="#A9C6FF"/>
<stop offset="1" stop-color="#DCE9FF"/>
</linearGradient>
<linearGradient id="paint62_linear_28_972" x1="52.1473" y1="91.2046" x2="90.5638" y2="142.975" gradientUnits="userSpaceOnUse">
<stop stop-color="#A9C6FF"/>
<stop offset="1" stop-color="#DCE9FF"/>
</linearGradient>
<linearGradient id="paint63_linear_28_972" x1="54.9317" y1="89.139" x2="93.3486" y2="140.911" gradientUnits="userSpaceOnUse">
<stop stop-color="#A9C6FF"/>
<stop offset="1" stop-color="#DCE9FF"/>
</linearGradient>
<linearGradient id="paint64_linear_28_972" x1="57.7153" y1="87.0739" x2="96.1322" y2="138.846" gradientUnits="userSpaceOnUse">
<stop stop-color="#A9C6FF"/>
<stop offset="1" stop-color="#DCE9FF"/>
</linearGradient>
<linearGradient id="paint65_linear_28_972" x1="60.4969" y1="85.0088" x2="98.9139" y2="136.78" gradientUnits="userSpaceOnUse">
<stop stop-color="#A9C6FF"/>
<stop offset="1" stop-color="#DCE9FF"/>
</linearGradient>
<linearGradient id="paint66_linear_28_972" x1="63.2815" y1="82.9425" x2="101.698" y2="134.714" gradientUnits="userSpaceOnUse">
<stop stop-color="#A9C6FF"/>
<stop offset="1" stop-color="#DCE9FF"/>
</linearGradient>
<linearGradient id="paint67_linear_28_972" x1="66.066" y1="80.8771" x2="104.483" y2="132.649" gradientUnits="userSpaceOnUse">
<stop stop-color="#A9C6FF"/>
<stop offset="1" stop-color="#DCE9FF"/>
</linearGradient>
<linearGradient id="paint68_linear_28_972" x1="51.0273" y1="92.0387" x2="89.4429" y2="143.808" gradientUnits="userSpaceOnUse">
<stop stop-color="#A9C6FF"/>
<stop offset="1" stop-color="#DCE9FF"/>
</linearGradient>
<linearGradient id="paint69_linear_28_972" x1="53.8115" y1="89.9714" x2="92.2282" y2="141.743" gradientUnits="userSpaceOnUse">
<stop stop-color="#A9C6FF"/>
<stop offset="1" stop-color="#DCE9FF"/>
</linearGradient>
<linearGradient id="paint70_linear_28_972" x1="56.5951" y1="87.9055" x2="95.0113" y2="139.677" gradientUnits="userSpaceOnUse">
<stop stop-color="#A9C6FF"/>
<stop offset="1" stop-color="#DCE9FF"/>
</linearGradient>
<linearGradient id="paint71_linear_28_972" x1="59.3769" y1="85.8411" x2="97.7937" y2="137.612" gradientUnits="userSpaceOnUse">
<stop stop-color="#A9C6FF"/>
<stop offset="1" stop-color="#DCE9FF"/>
</linearGradient>
<linearGradient id="paint72_linear_28_972" x1="62.1604" y1="83.7753" x2="100.577" y2="135.546" gradientUnits="userSpaceOnUse">
<stop stop-color="#A9C6FF"/>
<stop offset="1" stop-color="#DCE9FF"/>
</linearGradient>
<linearGradient id="paint73_linear_28_972" x1="64.9446" y1="81.7092" x2="103.362" y2="133.481" gradientUnits="userSpaceOnUse">
<stop stop-color="#A9C6FF"/>
<stop offset="1" stop-color="#DCE9FF"/>
</linearGradient>
<linearGradient id="paint74_linear_28_972" x1="49.9031" y1="92.8712" x2="88.3184" y2="144.64" gradientUnits="userSpaceOnUse">
<stop stop-color="#A9C6FF"/>
<stop offset="1" stop-color="#DCE9FF"/>
</linearGradient>
<linearGradient id="paint75_linear_28_972" x1="52.6876" y1="90.8047" x2="91.1032" y2="142.574" gradientUnits="userSpaceOnUse">
<stop stop-color="#A9C6FF"/>
<stop offset="1" stop-color="#DCE9FF"/>
</linearGradient>
<linearGradient id="paint76_linear_28_972" x1="55.4712" y1="88.7393" x2="93.8871" y2="140.51" gradientUnits="userSpaceOnUse">
<stop stop-color="#A9C6FF"/>
<stop offset="1" stop-color="#DCE9FF"/>
</linearGradient>
<linearGradient id="paint77_linear_28_972" x1="58.2528" y1="86.6743" x2="96.6687" y2="138.445" gradientUnits="userSpaceOnUse">
<stop stop-color="#A9C6FF"/>
<stop offset="1" stop-color="#DCE9FF"/>
</linearGradient>
<linearGradient id="paint78_linear_28_972" x1="61.0375" y1="84.6091" x2="99.4534" y2="136.379" gradientUnits="userSpaceOnUse">
<stop stop-color="#A9C6FF"/>
<stop offset="1" stop-color="#DCE9FF"/>
</linearGradient>
<linearGradient id="paint79_linear_28_972" x1="63.8223" y1="82.5431" x2="102.238" y2="134.313" gradientUnits="userSpaceOnUse">
<stop stop-color="#A9C6FF"/>
<stop offset="1" stop-color="#DCE9FF"/>
</linearGradient>
<linearGradient id="paint80_linear_28_972" x1="48.7833" y1="93.7019" x2="87.2003" y2="145.474" gradientUnits="userSpaceOnUse">
<stop stop-color="#A9C6FF"/>
<stop offset="1" stop-color="#DCE9FF"/>
</linearGradient>
<linearGradient id="paint81_linear_28_972" x1="51.5679" y1="91.6359" x2="89.985" y2="143.408" gradientUnits="userSpaceOnUse">
<stop stop-color="#A9C6FF"/>
<stop offset="1" stop-color="#DCE9FF"/>
</linearGradient>
<linearGradient id="paint82_linear_28_972" x1="54.3517" y1="89.5721" x2="92.7677" y2="141.343" gradientUnits="userSpaceOnUse">
<stop stop-color="#A9C6FF"/>
<stop offset="1" stop-color="#DCE9FF"/>
</linearGradient>
<linearGradient id="paint83_linear_28_972" x1="57.1364" y1="87.5066" x2="95.5531" y2="139.278" gradientUnits="userSpaceOnUse">
<stop stop-color="#A9C6FF"/>
<stop offset="1" stop-color="#DCE9FF"/>
</linearGradient>
<linearGradient id="paint84_linear_28_972" x1="59.9179" y1="85.4403" x2="98.3345" y2="137.211" gradientUnits="userSpaceOnUse">
<stop stop-color="#A9C6FF"/>
<stop offset="1" stop-color="#DCE9FF"/>
</linearGradient>
<linearGradient id="paint85_linear_28_972" x1="62.7024" y1="83.3742" x2="101.119" y2="135.145" gradientUnits="userSpaceOnUse">
<stop stop-color="#A9C6FF"/>
<stop offset="1" stop-color="#DCE9FF"/>
</linearGradient>
<linearGradient id="paint86_linear_28_972" x1="47.6604" y1="94.5351" x2="86.0764" y2="146.306" gradientUnits="userSpaceOnUse">
<stop stop-color="#A9C6FF"/>
<stop offset="1" stop-color="#DCE9FF"/>
</linearGradient>
<linearGradient id="paint87_linear_28_972" x1="50.4447" y1="92.4687" x2="88.8614" y2="144.24" gradientUnits="userSpaceOnUse">
<stop stop-color="#A9C6FF"/>
<stop offset="1" stop-color="#DCE9FF"/>
</linearGradient>
<linearGradient id="paint88_linear_28_972" x1="53.2283" y1="90.4036" x2="91.645" y2="142.175" gradientUnits="userSpaceOnUse">
<stop stop-color="#A9C6FF"/>
<stop offset="1" stop-color="#DCE9FF"/>
</linearGradient>
<linearGradient id="paint89_linear_28_972" x1="56.01" y1="88.3384" x2="94.4267" y2="140.11" gradientUnits="userSpaceOnUse">
<stop stop-color="#A9C6FF"/>
<stop offset="1" stop-color="#DCE9FF"/>
</linearGradient>
<linearGradient id="paint90_linear_28_972" x1="58.7944" y1="86.2718" x2="97.2114" y2="138.043" gradientUnits="userSpaceOnUse">
<stop stop-color="#A9C6FF"/>
<stop offset="1" stop-color="#DCE9FF"/>
</linearGradient>
<linearGradient id="paint91_linear_28_972" x1="61.579" y1="84.2068" x2="99.9955" y2="135.978" gradientUnits="userSpaceOnUse">
<stop stop-color="#A9C6FF"/>
<stop offset="1" stop-color="#DCE9FF"/>
</linearGradient>
<linearGradient id="paint92_linear_28_972" x1="133.749" y1="32.6731" x2="134.509" y2="38.7498" gradientUnits="userSpaceOnUse">
<stop stop-color="#CCAD74"/>
<stop offset="1" stop-color="#CCAD74"/>
</linearGradient>
<linearGradient id="paint93_linear_28_972" x1="142.293" y1="8.46508" x2="135.457" y2="30.6619" gradientUnits="userSpaceOnUse">
<stop stop-color="#FF7E64"/>
<stop offset="1" stop-color="#FFC8B3"/>
</linearGradient>
<linearGradient id="paint94_linear_28_972" x1="140.863" y1="26.9506" x2="138.247" y2="38.511" gradientUnits="userSpaceOnUse">
<stop stop-color="#FF7E64"/>
<stop offset="1" stop-color="#FFC8B3"/>
</linearGradient>
<linearGradient id="paint95_linear_28_972" x1="141.902" y1="30.5598" x2="135.403" y2="41.0673" gradientUnits="userSpaceOnUse">
<stop/>
<stop offset="1" stop-opacity="0"/>
</linearGradient>
<linearGradient id="paint96_linear_28_972" x1="133.117" y1="51.966" x2="104.421" y2="46.902" gradientUnits="userSpaceOnUse">
<stop stop-color="#FF7E64"/>
<stop offset="1" stop-color="#FFC8B3"/>
</linearGradient>
<linearGradient id="paint97_linear_28_972" x1="122.128" y1="167.925" x2="121.622" y2="176.111" gradientUnits="userSpaceOnUse">
<stop stop-color="#FF7E64"/>
<stop offset="1" stop-color="#FFC8B3"/>
</linearGradient>
<linearGradient id="paint98_linear_28_972" x1="155.063" y1="169.962" x2="154.556" y2="178.148" gradientUnits="userSpaceOnUse">
<stop stop-color="#FF7E64"/>
<stop offset="1" stop-color="#FFC8B3"/>
</linearGradient>
<linearGradient id="paint99_linear_28_972" x1="158.14" y1="60.0614" x2="116.11" y2="75.2531" gradientUnits="userSpaceOnUse">
<stop stop-color="#FF7E64"/>
<stop offset="1" stop-color="#FFC8B3"/>
</linearGradient>
<linearGradient id="paint100_linear_28_972" x1="132.098" y1="58.1438" x2="152.1" y2="80.5094" gradientUnits="userSpaceOnUse">
<stop stop-color="white"/>
<stop offset="1" stop-color="white" stop-opacity="0"/>
</linearGradient>
<linearGradient id="paint101_linear_28_972" x1="139.338" y1="51.6671" x2="159.34" y2="74.0325" gradientUnits="userSpaceOnUse">
<stop stop-color="white"/>
<stop offset="1" stop-color="white" stop-opacity="0"/>
</linearGradient>
<linearGradient id="paint102_linear_28_972" x1="105.5" y1="178.971" x2="116.308" y2="178.971" gradientUnits="userSpaceOnUse">
<stop stop-color="white"/>
<stop offset="1" stop-color="#52CDFF"/>
</linearGradient>
<linearGradient id="paint103_linear_28_972" x1="115.981" y1="35.0203" x2="112.5" y2="60.5929" gradientUnits="userSpaceOnUse">
<stop stop-color="white"/>
<stop offset="1" stop-color="white" stop-opacity="0"/>
</linearGradient>
<linearGradient id="paint104_linear_28_972" x1="148.847" y1="10.5506" x2="129.478" y2="35.8702" gradientUnits="userSpaceOnUse">
<stop/>
<stop offset="1" stop-opacity="0"/>
</linearGradient>
<linearGradient id="paint105_linear_28_972" x1="119.088" y1="39.5372" x2="143.226" y2="22.0667" gradientUnits="userSpaceOnUse">
<stop stop-color="white"/>
<stop offset="1" stop-color="white" stop-opacity="0"/>
</linearGradient>
</defs>
</svg>
