<svg width="14" height="14" viewBox="0 0 14 14" fill="none" xmlns="http://www.w3.org/2000/svg">
<rect width="14" height="14" rx="7" fill="#DBCAB8" fill-opacity="0.35"/>
<path d="M10.3327 7.4165V4.49984C10.3327 4.0396 9.95959 3.6665 9.49935 3.6665H4.49935C4.03911 3.6665 3.66602 4.0396 3.66602 4.49984V7.4165M10.3327 7.4165V9.49984C10.3327 9.96007 9.95959 10.3332 9.49935 10.3332H4.49935C4.03911 10.3332 3.66602 9.96007 3.66602 9.49984V7.4165M10.3327 7.4165H9.25527C9.14476 7.4165 9.03878 7.4604 8.96064 7.53854L7.95472 8.54446C7.87658 8.6226 7.7706 8.6665 7.66009 8.6665H6.3386C6.2281 8.6665 6.12212 8.62261 6.04398 8.54446L5.03805 7.53854C4.95991 7.4604 4.85393 7.4165 4.74343 7.4165H3.66602" stroke="#746253" stroke-width="0.75" stroke-linecap="round" stroke-linejoin="round"/>
</svg>
