<svg width="17" height="17" viewBox="0 0 17 17" fill="none" xmlns="http://www.w3.org/2000/svg">
<path d="M12.1206 10.3012C12.1833 9.78329 12.2304 9.2654 12.2304 8.73182C12.2304 8.19824 12.1833 7.68035 12.1206 7.16246H14.7728C14.8983 7.66465 14.9768 8.19039 14.9768 8.73182C14.9768 9.27325 14.8983 9.79898 14.7728 10.3012M10.7317 14.664C11.2025 13.793 11.5634 12.8514 11.8145 11.8705H14.1293C13.3691 13.1796 12.163 14.1712 10.7317 14.664ZM10.5355 10.3012H6.86319C6.78473 9.78329 6.73765 9.2654 6.73765 8.73182C6.73765 8.19824 6.78473 7.6725 6.86319 7.16246H10.5355C10.6061 7.6725 10.661 8.19824 10.661 8.73182C10.661 9.2654 10.6061 9.78329 10.5355 10.3012ZM8.69935 14.9779C8.04806 14.0363 7.52233 12.9926 7.20061 11.8705H10.1981C9.87637 12.9926 9.35063 14.0363 8.69935 14.9779ZM5.56062 5.59309H3.26936C4.02158 4.28035 5.22687 3.28711 6.65918 2.79963C6.18837 3.67063 5.83526 4.61224 5.56062 5.59309ZM3.26936 11.8705H5.56062C5.83526 12.8514 6.18837 13.793 6.65918 14.664C5.2297 14.1715 4.02602 13.1795 3.26936 11.8705ZM2.62592 10.3012C2.50037 9.79898 2.4219 9.27325 2.4219 8.73182C2.4219 8.19039 2.50037 7.66465 2.62592 7.16246H5.27814C5.21536 7.68035 5.16828 8.19824 5.16828 8.73182C5.16828 9.2654 5.21536 9.78329 5.27814 10.3012M8.69935 2.47791C9.35063 3.41953 9.87637 4.471 10.1981 5.59309H7.20061C7.52233 4.471 8.04806 3.41953 8.69935 2.47791ZM14.1293 5.59309H11.8145C11.5686 4.62135 11.2049 3.68326 10.7317 2.79963C12.1755 3.29398 13.376 4.29052 14.1293 5.59309ZM8.69935 0.88501C4.36006 0.88501 0.852539 4.41607 0.852539 8.73182C0.852539 10.8129 1.67925 12.8088 3.15082 14.2803C3.87946 15.009 4.74448 15.587 5.6965 15.9813C6.64852 16.3757 7.66889 16.5786 8.69935 16.5786C10.7805 16.5786 12.7763 15.7519 14.2479 14.2803C15.7194 12.8088 16.5462 10.8129 16.5462 8.73182C16.5462 7.70136 16.3432 6.68099 15.9489 5.72897C15.5545 4.77696 14.9765 3.91193 14.2479 3.18329C13.5192 2.45464 12.6542 1.87665 11.7022 1.48231C10.7502 1.08797 9.7298 0.88501 8.69935 0.88501Z" fill="#746253"/>
</svg>
