<svg width="14" height="14" viewBox="0 0 14 14" fill="none" xmlns="http://www.w3.org/2000/svg">
<rect width="14" height="14" rx="7" fill="#DBCAB8" fill-opacity="0.35"/>
<path d="M8.744 7.8C8.776 7.536 8.8 7.272 8.8 7C8.8 6.728 8.776 6.464 8.744 6.2H10.096C10.16 6.456 10.2 6.724 10.2 7C10.2 7.276 10.16 7.544 10.096 7.8M8.036 10.024C8.276 9.58 8.46 9.1 8.588 8.6H9.768C9.38047 9.26731 8.76565 9.7728 8.036 10.024ZM7.936 7.8H6.064C6.024 7.536 6 7.272 6 7C6 6.728 6.024 6.46 6.064 6.2H7.936C7.972 6.46 8 6.728 8 7C8 7.272 7.972 7.536 7.936 7.8ZM7 10.184C6.668 9.704 6.4 9.172 6.236 8.6H7.764C7.6 9.172 7.332 9.704 7 10.184ZM5.4 5.4H4.232C4.61546 4.73081 5.22986 4.2245 5.96 3.976C5.72 4.42 5.54 4.9 5.4 5.4ZM4.232 8.6H5.4C5.54 9.1 5.72 9.58 5.96 10.024C5.23131 9.77292 4.61772 9.26728 4.232 8.6ZM3.904 7.8C3.84 7.544 3.8 7.276 3.8 7C3.8 6.724 3.84 6.456 3.904 6.2H5.256C5.224 6.464 5.2 6.728 5.2 7C5.2 7.272 5.224 7.536 5.256 7.8M7 3.812C7.332 4.292 7.6 4.828 7.764 5.4H6.236C6.4 4.828 6.668 4.292 7 3.812ZM9.768 5.4H8.588C8.46262 4.90464 8.27725 4.42644 8.036 3.976C8.772 4.228 9.384 4.736 9.768 5.4ZM7 3C4.788 3 3 4.8 3 7C3 8.06087 3.42143 9.07828 4.17157 9.82843C4.54301 10.1999 4.98396 10.4945 5.46927 10.6955C5.95457 10.8965 6.47471 11 7 11C8.06087 11 9.07828 10.5786 9.82843 9.82843C10.5786 9.07828 11 8.06087 11 7C11 6.47471 10.8965 5.95457 10.6955 5.46927C10.4945 4.98396 10.1999 4.54301 9.82843 4.17157C9.45699 3.80014 9.01604 3.5055 8.53073 3.30448C8.04543 3.10346 7.52529 3 7 3Z" fill="#746253"/>
</svg>
