<svg width="318" height="318" viewBox="0 0 318 318" fill="none" xmlns="http://www.w3.org/2000/svg">
<g clip-path="url(#clip0_3577_13595)">
<path d="M159 318C246.813 318 318 246.813 318 159C318 71.1867 246.813 0 159 0C71.1867 0 0 71.1867 0 159C0 246.813 71.1867 318 159 318Z" fill="#999999"/>
<path d="M169.835 165.088C177.192 166.253 184.625 166.956 191.845 168.971C209.98 174.03 225.308 183.176 235.996 199.112C241.683 207.592 245.34 216.875 246.643 227.03C248.535 241.754 240.163 254.816 226.436 258.587C223.925 259.276 221.344 259.502 218.734 259.502C178.57 259.502 138.406 259.502 98.2418 259.502C95.9483 259.502 93.7209 259.016 91.4746 258.686C87.8692 257.355 84.2686 256.086 81.2531 253.514C74.9248 248.106 71.5035 241.254 71.1307 233.009C70.6163 221.613 74.4954 211.363 80.196 201.778C88.8178 187.281 101.559 177.73 117.184 171.817C128.161 167.669 139.576 165.871 151.242 165.073C157.462 164.649 163.639 165.262 169.83 165.083L169.835 165.088Z" fill="#FEFEFE"/>
<path d="M188.574 68.5163C188.48 69.4082 189.273 69.6678 189.764 70.1067C207.621 86.0808 211.396 110.148 199.263 130.78C189.339 147.655 168.108 156.65 148.665 152.214C148.056 152.077 147.433 151.992 146.82 151.884C141.105 150.095 135.655 147.75 130.874 144.074C116.571 133.078 109.954 118.421 111.993 100.63C114.074 82.4282 124.098 69.4318 141.082 62.2683C155.338 56.2562 169.269 57.6011 182.709 65.0478C184.346 65.9586 185.634 67.4309 187.475 68.0114C187.796 68.3748 188.069 68.8608 188.683 68.5069H188.579L188.574 68.5163Z" fill="#FEFEFE"/>
</g>
<defs>
<clipPath id="clip0_3577_13595">
<rect width="318" height="318" fill="white"/>
</clipPath>
</defs>
</svg>
