<svg width="216" height="216" viewBox="0 0 216 216" fill="none" xmlns="http://www.w3.org/2000/svg">
<path d="M122.4 112.5C124 115.7 110.6 120.7 108.2 121.3C90.2004 126.3 74.7004 123.1 58.7004 114.8C58.4004 114.6 56.0004 116.4 55.6004 116.6C54.6004 117.1 53.7004 117.7 52.7004 118.2C51.0004 119.1 49.2004 120 47.4004 120.7C42.9004 122.5 38.0004 123.2 33.1004 122.4C29.7004 121.9 25.5004 120.8 23.6004 117.7C23.4004 117.4 23.3004 117.1 23.1004 116.8C21.7004 113.5 24.3004 110.4 26.9004 108.6C31.5004 105.4 37.4004 104.5 42.8004 104.5C45.4004 104.5 48.1004 104.8 50.7004 105.2C52.1004 105.5 53.6004 105.8 55.0004 106.1C55.4004 106.2 59.4004 107.6 59.5004 107.5C67.5004 97.2001 71.3004 87.8001 76.9004 76.0001C69.5004 76.9001 61.2004 76.8001 54.4004 73.2001C50.6004 71.2001 47.5004 67.8001 47.5004 63.2001C47.5004 55.1001 55.0004 50.8001 61.3004 48.4001C66.5004 46.5001 72.1004 45.8001 77.6004 45.8001C78.8004 45.8001 78.9004 47.2001 77.5004 47.2001C61.0004 47.2001 52.2004 55.7001 51.9004 61.9001C51.6004 68.4001 59.7004 74.1001 78.7004 73.1001C78.9004 73.1001 79.6004 71.4001 79.8004 71.2001C80.2004 70.5001 80.5004 69.8001 80.9004 69.1001C81.7004 67.7001 82.4004 66.2001 83.2004 64.8001C84.8004 61.8001 86.3004 58.8001 87.9004 55.9001C91.2004 49.9001 94.6004 44.1001 98.9004 38.7001C102.9 33.8001 107.6 29.3001 113.3 26.4001C117.8 24.2001 127.2 20.7001 130.1 27.2001C132 31.4001 129.4 36.8001 127.4 40.5001C125.1 44.8001 122.2 48.9001 118.8 52.4001C110.2 62.1001 99.6004 68.9001 87.3004 74.6001C78.8004 90.8001 75.8004 96.6001 65.0004 109.4C82.8004 122.3 104 124.9 122.4 112.5ZM35.2004 121.1C41.8004 121.1 49.1004 117.6 53.1004 112.2C29.6004 96.7001 19.4004 120.2 35.2004 121.1ZM89.6004 69.7001C89.4004 70.2001 89.2004 70.7001 89.0004 71.2001C89.6004 71.0001 90.2004 70.8001 90.8004 70.6001C95.1004 68.9001 100.2 65.9001 101.6 64.8001C105.6 62.0001 109 58.5001 112.2 54.8001C117.9 48.2001 124 41.6001 125.9 32.8001C126.4 30.6001 126.9 27.7001 125.6 25.7001C124.3 23.7001 121.7 24.3001 119.8 25.1001C118 25.9001 116.2 27.0001 114.8 28.3001C105.1 37.2001 94.1004 60.5001 89.6004 69.7001Z" fill="#DBCAB8"/>
<path d="M191.4 89.2C183.2 89.2 154.3 111.5 137.9 135.3L120 141.1C122.5 136.3 124.7 131.7 126.9 127.3C132.5 115.5 137.9 104.4 148.3 92.4L148.4 92.3V92.2C148.4 91.5 148.1 91.2 147.4 91.2H147.3C134.3 95.8 125.4 96.6 112.5 96.6C91.6 96.6 76.4 107.9 76.4 123.6C76.4 133.4 83.9 140.8 93.9 140.8C102.4 140.8 110 132.5 110.1 132.4L110.2 132.2L108.9 130.9L108.7 131C108.6 131.1 100.8 138 93.8 138C85.4 138 79 131.8 79 123.5C79 102.8 107.5 101.2 116.2 101.2C127.5 101.2 131.7 99.7 143.4 94.6C129.4 111.7 118.7 128.9 109.8 143.7C81.5 152.7 54 162.9 54 181.7C54 188.1 59.6 193.3 66.6 193.3C84.2 193.3 107.5 171.5 118.6 144.6L136.2 138.9C129.9 149.6 127 159.7 127 171.5C127 182.1 132.9 189 142 189C145.4 189 149.9 186.2 150.1 186.1L150.3 185.9L149 184.6L148.9 184.7C148.9 184.7 144.6 186.4 141.9 186.4C136.1 186.4 132.9 182.2 132.9 174.9C132.9 160.7 143.5 141.8 148 134.3C157.4 130.2 163.5 127 173.9 120.5C187.6 112 195.8 100.7 195.8 94.7C195.8 91.2 194.2 89.2 191.4 89.2ZM193.4 94.7C193.4 100.2 183.4 111.4 172.4 118.2C162.7 124.3 158.4 126.8 150.4 130.2C166.6 106.8 184.5 91.1 191.1 91.1C192.5 91.1 193.4 92.6 193.4 94.7ZM66.9 190.2C61.5 190.2 57 186.2 57 181.3C57 165.3 80.5 157.1 107.6 147.5L107.8 147.4C98.1 163.8 82.2 190.2 66.9 190.2Z" fill="#DBCAB8"/>
</svg>
