<svg width="159" height="53" viewBox="0 0 159 53" fill="none" xmlns="http://www.w3.org/2000/svg">
<path d="M125.595 6.21915C122.672 6.21915 112.233 14.1303 106.34 22.5902L99.8911 24.648C100.819 22.956 101.608 21.3097 102.35 19.755C104.392 15.5936 106.294 11.6152 110.052 7.36237V7.31664V7.27092C110.052 7.04227 109.913 6.90508 109.681 6.90508H109.634C104.948 8.55133 101.747 8.8257 97.1074 8.8257C89.5912 8.8257 84.1164 12.8499 84.1164 18.3831C84.1164 21.8585 86.8074 24.5108 90.4263 24.5108C93.4884 24.5108 96.2258 21.5384 96.2722 21.5384L96.3186 21.4927L95.8547 21.0354L95.8083 21.0811C95.7619 21.1268 92.9781 23.5505 90.4263 23.5505C87.3641 23.5505 85.0907 21.3555 85.0907 18.3831C85.0907 11.0664 95.3443 10.472 98.4992 10.472C102.582 10.472 104.067 9.9232 108.289 8.13977C103.278 14.2217 99.3808 20.3494 96.1794 25.6083C86.0186 28.7636 76.0898 32.3762 76.0898 39.0069C76.0898 41.2934 78.1313 43.1225 80.5903 43.1225C86.9002 43.1225 95.2979 35.3486 99.3344 25.8369L105.691 23.8248C103.417 27.6204 102.397 31.1872 102.397 35.3943C102.397 39.1898 104.531 41.6135 107.778 41.6135C108.985 41.6135 110.655 40.6074 110.701 40.5617L110.794 40.516L110.33 40.0587H110.284C110.284 40.0587 108.753 40.6989 107.778 40.6989C105.691 40.6989 104.531 39.2355 104.531 36.629C104.531 31.5988 108.335 24.8766 109.959 22.2243C113.346 20.761 115.527 19.6178 119.285 17.3313C124.203 14.3132 127.172 10.289 127.172 8.1855C127.172 6.90508 126.615 6.21915 125.595 6.21915ZM126.337 8.1855C126.337 10.1061 122.718 14.0845 118.774 16.5082C115.295 18.6575 113.717 19.572 110.887 20.761C116.733 12.4383 123.136 6.85935 125.548 6.85935C125.966 6.90508 126.337 7.4081 126.337 8.1855ZM95.4835 26.8887C92.0038 32.6506 86.2506 42.0707 80.7295 42.0707C78.7808 42.0707 77.2034 40.6531 77.2034 38.9154C77.2034 33.245 85.6475 30.3184 95.4371 26.9344L95.4835 26.8887Z" fill="black"/>
<path d="M39.8083 38.0923C40.365 39.2355 35.5398 40.9732 34.7047 41.2019C28.2556 42.9396 22.688 41.8421 16.9349 38.9154C16.8421 38.8697 15.9606 39.4642 15.8214 39.5556C15.4966 39.7385 15.1255 39.9215 14.7543 40.1044C14.1511 40.4245 13.5016 40.7446 12.852 40.9732C11.2282 41.6134 9.46511 41.8421 7.74845 41.5677C6.54214 41.3848 5.01107 40.9732 4.31512 39.8757C4.26873 39.7843 4.17593 39.6471 4.12954 39.5556C3.61918 38.4124 4.5471 37.2692 5.47503 36.6747C7.0989 35.5315 9.23313 35.2114 11.1818 35.2114C12.1097 35.2114 13.084 35.3028 14.0119 35.4857C14.5223 35.5772 15.0327 35.6687 15.543 35.8058C15.6822 35.8516 17.1205 36.3546 17.1669 36.2631C20.0899 32.6505 21.4353 29.3123 23.4304 25.1052C20.7858 25.4253 17.77 25.4253 15.3574 24.1449C14.0119 23.4133 12.8984 22.2243 12.8984 20.6238C12.8984 17.7429 15.5894 16.2338 17.8628 15.4107C19.7187 14.7247 21.7137 14.4961 23.7088 14.4961C24.1727 14.4961 24.1727 14.9991 23.6624 14.9991C17.77 14.9991 14.6151 18.0172 14.4759 20.1665C14.3367 22.453 17.2597 24.465 24.0799 24.0992C24.1727 24.0992 24.4047 23.5047 24.4511 23.4133C24.5903 23.1846 24.7295 22.9102 24.8687 22.6816C25.147 22.1786 25.4254 21.6756 25.6574 21.1725C26.2142 20.1208 26.7709 19.069 27.3741 18.0172C28.534 15.9137 29.7867 13.8102 31.3177 11.9353C32.756 10.1976 34.4263 8.59705 36.4677 7.59101C38.0916 6.81361 41.4785 5.57893 42.4992 7.86538C43.1488 9.32871 42.2209 11.2493 41.5249 12.5755C40.6898 14.0845 39.6691 15.5479 38.4628 16.7826C35.4006 20.2122 31.5961 22.5901 27.1421 24.6022C24.1263 30.3641 23.0592 32.4219 19.1619 36.9491C25.611 41.5677 33.22 42.4823 39.8083 38.0923ZM8.53718 41.1104C10.9034 41.1104 13.548 39.8757 14.9399 37.9551C6.49575 32.5134 2.87684 40.7903 8.53718 41.1104ZM28.0236 22.956C27.9308 23.1389 27.8844 23.3218 27.7916 23.5047C28.0236 23.4133 28.2092 23.3675 28.4412 23.2761C29.9723 22.6816 31.7817 21.5841 32.3385 21.2183C33.7767 20.2122 34.9831 18.9775 36.143 17.6971C38.1844 15.365 40.365 13.0328 41.061 9.92319C41.2465 9.1458 41.4321 8.09403 40.9218 7.40809C40.4578 6.67643 39.5299 6.90507 38.8339 7.22517C38.1844 7.49955 37.5349 7.91111 37.0245 8.3684C33.5912 11.478 29.6475 19.7092 28.0236 22.956Z" fill="black"/>
<path d="M108.706 31.8274C109.866 28.0776 113.207 23.2761 117.29 23.2761C120.444 23.2761 121.326 26.5229 120.491 29.6324L111.444 31.1872C110.84 33.7023 110.516 37.1777 113.392 37.1777C115.526 37.1777 117.985 35.1199 119.377 33.1536L119.749 33.245C117.846 36.5833 114.877 39.1441 111.49 39.1441C108.057 39.1898 107.686 35.0285 108.706 31.8274ZM111.768 30.044L111.629 30.5013L118.171 29.3123C118.681 27.4374 119.238 23.8248 116.965 23.8248C114.181 23.8706 112.464 27.8033 111.768 30.044Z" fill="black"/>
<path d="M119.656 34.9827C120.909 30.9586 125.734 29.6324 128.703 29.9525L128.982 29.038C129.353 27.9405 130.373 24.648 129.678 24.0078C129.492 23.7791 129.028 23.8248 128.703 23.8248C126.894 23.8248 124.945 27.0716 124.574 28.6721H122.208C123.182 25.5168 126.105 23.1846 129.074 23.1846C131.765 23.1846 132.461 25.2424 131.58 27.9405L129.121 35.7601C128.889 36.5375 128.564 38.0923 129.538 38.0923C130.002 38.0923 130.42 37.8179 130.837 37.4978L130.93 37.8179C130.049 38.7782 129.028 39.1441 128.007 39.1441C126.012 39.1441 126.337 37.4978 126.894 35.7601C125.687 37.3606 123.832 39.2355 122.069 39.2355C119.934 39.1898 118.96 37.132 119.656 34.9827ZM123.739 37.3149C124.899 37.3149 126.337 35.6229 127.172 34.6169C127.497 33.7023 127.822 32.742 128.1 31.8732L128.471 30.547C128.239 30.5013 128.054 30.5013 127.822 30.5013C125.827 30.5013 122.904 31.7817 122.115 34.2511C121.651 35.6687 122.347 37.3149 123.739 37.3149Z" fill="black"/>
<path d="M134.642 23.4133L139.467 23.3676L138.261 27.2545C139.42 25.5168 141.23 23.459 143.179 23.459C144.802 23.459 145.406 25.151 144.895 26.7972C144.617 27.7118 143.735 28.6721 142.807 28.6721C141.926 28.6721 141.787 27.7118 142.065 26.8887C142.297 26.2028 142.715 25.6083 142.947 24.9681C143.086 24.5108 142.807 24.2364 142.343 24.2364C140.812 24.2364 137.936 28.1234 137.518 29.5867L135.43 36.2174C134.827 38.1838 135.57 38.1838 137.008 38.5039L136.869 38.9154H129.816L129.956 38.5039C131.579 38.1838 132.368 38.1838 133.018 36.2174L135.941 26.9802C136.544 25.0138 136.544 23.962 134.549 23.8706L134.642 23.4133Z" fill="black"/>
<path d="M145.174 24.0992L145.313 23.5962C147.679 23.5962 149.999 20.761 151.252 18.7032H151.576L150.092 23.4133H153.432L153.247 24.0535H149.86L146.148 35.8973C145.87 36.7204 145.591 38.138 146.658 38.138C147.401 38.138 148.329 37.3606 148.932 36.7662L149.071 37.132C148.143 38.2295 146.519 39.1898 145.266 39.1898C143.039 39.1898 143.411 37.3149 144.014 35.3486C145.174 31.6902 146.426 27.6204 147.54 24.0535L145.174 24.0992Z" fill="black"/>
<path d="M29.4616 36.9491L29.8791 35.943C30.9927 33.1993 32.0134 30.6842 33.1269 27.9404C34.1012 25.5168 32.7093 25.1967 31.2246 25.1967C31.1318 25.1967 31.271 24.6937 31.271 24.6937L36.5602 24.6022L31.5958 37.0405C30.9927 38.3209 31.503 38.6868 31.8278 38.6868C32.5237 38.641 33.3589 36.9948 33.6372 36.4918L34.1012 36.5832C33.0341 38.4124 32.3845 39.6013 30.6215 39.6013C28.4873 39.6471 29.0904 37.9551 29.4616 36.9491ZM35.7251 20.8067C36.0962 19.9378 36.9778 19.0233 37.8593 19.0233C38.6944 19.0233 38.8336 19.9378 38.4625 20.8067C38.1377 21.6298 37.2098 22.6359 36.3746 22.6359C35.4931 22.6359 35.4003 21.6755 35.7251 20.8067Z" fill="black"/>
<path d="M33.8225 41.0647C34.5184 41.0647 34.8896 41.4305 34.6576 42.2079C34.5184 42.7109 34.24 43.1225 33.9153 43.5798C34.0545 45.2717 35.0288 46.1406 36.8382 46.1406C38.8797 46.1406 42.1738 45.0888 43.2409 41.9335C44.308 38.641 35.4927 40.5159 35.1216 36.949C35.0752 36.7204 35.1216 36.5375 35.2144 36.3088C35.6319 35.0742 37.0238 34.2053 38.1373 33.6566C37.0702 32.6048 36.8846 30.9128 37.4414 29.1294C38.5085 25.7912 41.7562 23.459 44.772 23.459C45.6535 23.459 46.4887 23.6419 47.1382 24.0992C47.9269 22.7273 49.5044 20.761 51.0819 20.761C52.0098 20.761 52.3346 21.4926 52.0098 22.4529C51.7778 23.1389 51.1747 24.0534 50.4323 24.0534C49.5508 24.0534 49.3652 22.7273 48.9477 22.7273C48.5301 22.7273 47.695 23.9163 47.5094 24.2821C48.7621 25.2881 49.1332 27.1173 48.4837 29.0836C47.3702 32.3304 44.0761 34.7541 41.1067 34.7541C40.2252 34.7541 39.39 34.5254 38.6941 34.0681C38.3229 34.3425 37.9517 34.7541 37.8126 35.1656C37.5342 36.0345 39.0653 36.5375 39.622 36.6747C41.9418 37.3606 45.9319 37.2692 44.6792 41.1561C43.3801 45.1346 39.7148 46.7808 36.8382 46.7351C34.1473 46.7351 31.5491 45.3175 32.477 42.4365C32.6162 41.8421 33.1729 41.0647 33.8225 41.0647ZM40.0396 27.6203C39.2972 29.9525 39.0653 34.251 41.7562 34.251C43.7513 34.251 45.1432 32.3761 45.7463 30.5012C46.4887 28.2605 46.8134 23.9163 44.1688 23.9163C42.1738 23.9163 40.6891 25.654 40.0396 27.6203Z" fill="black"/>
<path d="M53.3086 14.9077H58.737L54.9325 26.4771C56.742 25.0138 58.505 23.459 60.6393 23.459C63.0519 23.459 62.7271 26.4314 62.0775 28.4892L59.4793 36.3546C58.8298 38.3667 59.6185 38.3667 61.1032 38.6868L60.964 39.0983H53.7726L53.9118 38.6868C55.5357 38.3667 56.4636 38.3667 57.1131 36.3546L59.5721 28.8093C60.0825 27.2545 60.8248 24.7394 58.7834 24.7394C57.8091 24.7394 55.7676 26.4771 54.7005 27.0716L51.6848 36.3089C51.0352 38.3209 51.8704 38.3209 53.3086 38.641L53.1695 39.0526H45.9316L46.0708 38.641C47.7411 38.3209 48.5762 38.3209 49.2722 36.3089L55.2573 17.9715C56.046 15.5021 55.2573 15.3649 53.1695 15.3649L53.3086 14.9077Z" fill="black"/>
<path d="M64.4899 24.0535L64.6755 23.5504C67.1345 23.5504 69.5007 20.6695 70.7998 18.6117H71.1246L69.5471 23.3675H72.9804L72.7484 24.0077H69.2687L65.3714 35.8973C65.0931 36.7204 64.8147 38.138 65.8818 38.138C66.6705 38.138 67.5985 37.3606 68.2016 36.7661L68.3408 37.132C67.3665 38.2752 65.7426 39.2355 64.4435 39.2355C62.1237 39.2355 62.5413 37.3606 63.1908 35.3943C64.3971 31.7359 65.6962 27.666 66.8561 24.0535H64.4899Z" fill="black"/>
</svg>
